<svg width="184" height="177" fill="none" xmlns="http://www.w3.org/2000/svg"><g clip-path="url(#a)" fill="#FF5722"><path d="M4.84 128.32c-1.44 0-2.61 1.18-2.61 2.63s1.17 2.63 2.61 2.63 2.61-1.18 2.61-2.63-1.17-2.63-2.61-2.63ZM49.5 133.58a2.62 2.62 0 0 0 2.61-2.63 2.62 2.62 0 0 0-2.61-2.63 2.62 2.62 0 0 0-2.61 2.63 2.62 2.62 0 0 0 2.61 2.63ZM27.17 128.32c-1.44 0-2.61 1.18-2.61 2.63s1.17 2.63 2.61 2.63 2.61-1.18 2.61-2.63-1.17-2.63-2.61-2.63ZM26.8 106.94c-1.44 0-2.61 1.18-2.61 2.63s1.17 2.63 2.61 2.63 2.61-1.18 2.61-2.63-1.17-2.63-2.61-2.63ZM4.47 106.94c-1.44 0-2.61 1.18-2.61 2.63s1.17 2.63 2.61 2.63 2.61-1.18 2.61-2.63-1.17-2.63-2.61-2.63ZM71.46 106.94c-1.44 0-2.61 1.18-2.61 2.63s1.17 2.63 2.61 2.63 2.61-1.18 2.61-2.63-1.17-2.63-2.61-2.63ZM49.13 106.94c-1.44 0-2.61 1.18-2.61 2.63s1.17 2.63 2.61 2.63 2.61-1.18 2.61-2.63-1.17-2.63-2.61-2.63ZM4.84 171.1c-1.44 0-2.61 1.18-2.61 2.63s1.17 2.63 2.61 2.63 2.61-1.18 2.61-2.63-1.17-2.63-2.61-2.63ZM26.8 149.71c-1.44 0-2.61 1.18-2.61 2.63s1.17 2.63 2.61 2.63 2.61-1.18 2.61-2.63-1.17-2.63-2.61-2.63ZM4.47 149.71c-1.44 0-2.61 1.18-2.61 2.63s1.17 2.63 2.61 2.63 2.61-1.18 2.61-2.63-1.17-2.63-2.61-2.63ZM93.42 85.55c-1.44 0-2.61 1.18-2.61 2.63s1.17 2.63 2.61 2.63 2.61-1.18 2.61-2.63-1.17-2.63-2.61-2.63ZM48.76 85.55c-1.44 0-2.61 1.18-2.61 2.63s1.17 2.63 2.61 2.63 2.61-1.18 2.61-2.63-1.17-2.63-2.61-2.63ZM71.09 90.81a2.62 2.62 0 0 0 2.61-2.63 2.62 2.62 0 0 0-2.61-2.63 2.62 2.62 0 0 0-2.61 2.63 2.62 2.62 0 0 0 2.61 2.63ZM26.42 85.55c-1.44 0-2.61 1.18-2.61 2.63s1.17 2.63 2.61 2.63 2.61-1.18 2.61-2.63-1.16-2.63-2.61-2.63ZM4.09 85.55c-1.44 0-2.61 1.18-2.61 2.63s1.17 2.63 2.61 2.63 2.61-1.18 2.61-2.63-1.17-2.63-2.61-2.63ZM93.04 64.16c-1.44 0-2.61 1.18-2.61 2.63s1.17 2.63 2.61 2.63 2.61-1.18 2.61-2.63-1.17-2.63-2.61-2.63ZM70.71 64.16c-1.44 0-2.61 1.18-2.61 2.63s1.17 2.63 2.61 2.63 2.61-1.18 2.61-2.63-1.17-2.63-2.61-2.63ZM48.38 64.16c-1.44 0-2.61 1.18-2.61 2.63s1.17 2.63 2.61 2.63 2.61-1.18 2.61-2.63-1.17-2.63-2.61-2.63ZM115.38 64.16c-1.44 0-2.61 1.18-2.61 2.63s1.17 2.63 2.61 2.63 2.61-1.18 2.61-2.63-1.17-2.63-2.61-2.63ZM3.72 64.16c-1.44 0-2.61 1.18-2.61 2.63s1.17 2.63 2.61 2.63 2.61-1.18 2.61-2.63-1.17-2.63-2.61-2.63ZM26.05 64.16c-1.44 0-2.61 1.18-2.61 2.63s1.17 2.63 2.61 2.63 2.61-1.18 2.61-2.63-1.17-2.63-2.61-2.63ZM3.35 42.77c-1.44 0-2.61 1.18-2.61 2.63s1.17 2.63 2.61 2.63 2.61-1.18 2.61-2.63-1.17-2.63-2.61-2.63ZM92.67 48.03a2.62 2.62 0 0 0 2.61-2.63 2.62 2.62 0 0 0-2.61-2.63 2.62 2.62 0 0 0-2.61 2.63 2.62 2.62 0 0 0 2.61 2.63ZM137.33 48.03a2.62 2.62 0 0 0 2.61-2.63 2.62 2.62 0 0 0-2.61-2.63 2.62 2.62 0 0 0-2.61 2.63 2.62 2.62 0 0 0 2.61 2.63ZM70.34 42.77c-1.44 0-2.61 1.18-2.61 2.63s1.17 2.63 2.61 2.63 2.61-1.18 2.61-2.63-1.17-2.63-2.61-2.63ZM48.01 42.77c-1.44 0-2.61 1.18-2.61 2.63s1.17 2.63 2.61 2.63 2.61-1.18 2.61-2.63-1.17-2.63-2.61-2.63ZM25.68 42.77c-1.44 0-2.61 1.18-2.61 2.63s1.17 2.63 2.61 2.63 2.61-1.18 2.61-2.63-1.17-2.63-2.61-2.63ZM115 42.77c-1.44 0-2.61 1.18-2.61 2.63s1.17 2.63 2.61 2.63 2.61-1.18 2.61-2.63-1.17-2.63-2.61-2.63ZM2.98 26.64a2.62 2.62 0 0 0 2.61-2.63 2.62 2.62 0 0 0-2.61-2.63 2.62 2.62 0 0 0-2.61 2.63 2.62 2.62 0 0 0 2.61 2.63ZM114.63 21.39c-1.44 0-2.61 1.18-2.61 2.63s1.17 2.63 2.61 2.63 2.61-1.18 2.61-2.63-1.17-2.63-2.61-2.63ZM25.31 21.39c-1.44 0-2.61 1.18-2.61 2.63s1.17 2.63 2.61 2.63 2.61-1.18 2.61-2.63-1.17-2.63-2.61-2.63ZM69.97 21.39c-1.44 0-2.61 1.18-2.61 2.63s1.17 2.63 2.61 2.63 2.61-1.18 2.61-2.63-1.17-2.63-2.61-2.63ZM47.64 21.39c-1.44 0-2.61 1.18-2.61 2.63s1.17 2.63 2.61 2.63 2.61-1.18 2.61-2.63-1.17-2.63-2.61-2.63ZM92.3 21.39c-1.44 0-2.61 1.18-2.61 2.63s1.17 2.63 2.61 2.63 2.61-1.18 2.61-2.63-1.17-2.63-2.61-2.63ZM159.29 21.39c-1.44 0-2.61 1.18-2.61 2.63s1.17 2.63 2.61 2.63 2.61-1.18 2.61-2.63-1.16-2.63-2.61-2.63ZM136.96 21.39c-1.44 0-2.61 1.18-2.61 2.63s1.17 2.63 2.61 2.63 2.61-1.18 2.61-2.63-1.16-2.63-2.61-2.63ZM24.94 5.25c1.44 0 2.61-1.18 2.61-2.63S26.38-.01 24.94-.01s-2.61 1.18-2.61 2.63 1.17 2.63 2.61 2.63ZM2.61 5.25c1.44 0 2.61-1.18 2.61-2.63A2.62 2.62 0 0 0 2.61 0C1.18 0 0 1.18 0 2.63s1.17 2.63 2.61 2.63v-.01ZM158.92 5.26a2.62 2.62 0 0 0 2.61-2.63A2.62 2.62 0 0 0 158.92 0a2.62 2.62 0 0 0-2.61 2.63 2.62 2.62 0 0 0 2.61 2.63ZM91.93 5.25c1.44 0 2.61-1.18 2.61-2.63S93.37-.01 91.93-.01s-2.61 1.18-2.61 2.63 1.17 2.63 2.61 2.63ZM114.26 5.25c1.44 0 2.61-1.18 2.61-2.63s-1.17-2.63-2.61-2.63-2.61 1.18-2.61 2.63 1.17 2.63 2.61 2.63ZM136.59 5.25c1.44 0 2.61-1.18 2.61-2.63s-1.17-2.63-2.61-2.63-2.61 1.18-2.61 2.63 1.17 2.63 2.61 2.63ZM47.27 5.25c1.44 0 2.61-1.18 2.61-2.63S48.71-.01 47.27-.01s-2.61 1.18-2.61 2.63 1.17 2.63 2.61 2.63ZM181.25 5.25c1.44 0 2.61-1.18 2.61-2.63s-1.16-2.63-2.61-2.63-2.61 1.18-2.61 2.63 1.17 2.63 2.61 2.63ZM69.6 5.25c1.44 0 2.61-1.18 2.61-2.63S71.04-.01 69.6-.01s-2.61 1.18-2.61 2.63 1.17 2.63 2.61 2.63Z"/></g><defs><clipPath id="a"><path fill="#fff" d="M0 0h183.86v176.35H0z"/></clipPath></defs></svg>