<svg xmlns="http://www.w3.org/2000/svg" width="32" height="32" fill="none"><path fill="#FACD49" d="M23.891 19.093a1.467 1.467 0 0 0-.425 1.294l1.185 6.56a1.44 1.44 0 0 1-.6 1.44 1.468 1.468 0 0 1-1.56.107l-5.905-3.08a1.508 1.508 0 0 0-.667-.175h-.361a1.083 1.083 0 0 0-.36.12L9.29 28.453c-.292.147-.622.2-.946.147a1.482 1.482 0 0 1-1.187-1.695l1.187-6.56a1.492 1.492 0 0 0-.426-1.305l-4.814-4.666a1.44 1.44 0 0 1-.36-1.507 1.497 1.497 0 0 1 1.186-1l6.627-.962a1.483 1.483 0 0 0 1.173-.811l2.92-5.987c.07-.134.159-.256.267-.36l.12-.093a.893.893 0 0 1 .214-.174l.146-.053.226-.094h.562c.501.052.942.353 1.173.8l2.959 5.96c.213.437.628.74 1.106.813l6.627.96c.56.08 1.028.468 1.214 1a1.448 1.448 0 0 1-.387 1.508l-4.987 4.72Z"/></svg>