<svg width="448" height="272" fill="none" xmlns="http://www.w3.org/2000/svg"><g clip-path="url(#a)"><mask id="b" style="mask-type:luminance" maskUnits="userSpaceOnUse" x="92" y="11" width="253" height="253"><path d="M307.971 226.188c49.185-49.185 49.185-128.93 0-178.116-49.186-49.186-128.931-49.186-178.116 0-49.186 49.185-49.186 128.931 0 178.116 49.185 49.185 128.93 49.185 178.116 0Z" fill="#fff"/></mask><g mask="url(#b)" fill="#FACD49"><path d="m94.188 216.364-2.279 2.281 8.737 8.725 2.278-2.282-8.737-8.724Z"/><path d="m91.904 225.108 2.281 2.278 8.724-8.736-2.281-2.278-8.724 8.736ZM94.218 239.446l-2.278 2.281 8.736 8.724 2.279-2.281-8.737-8.724Z"/><path d="m91.922 248.177 2.281 2.279 8.725-8.737-2.282-2.278-8.724 8.736ZM94.23 260.905l-2.279 2.281 8.737 8.725 2.278-2.282-8.737-8.724Z"/><path d="m91.947 269.672 2.281 2.278 8.725-8.737-2.281-2.278-8.725 8.737ZM94.156 148.011l-2.279 2.281 8.737 8.725 2.278-2.281-8.736-8.725Z"/><path d="m91.855 156.728 2.282 2.278 8.724-8.736-2.281-2.278-8.725 8.736ZM94.156 171.081l-2.278 2.281 8.736 8.724 2.278-2.281-8.736-8.724Z"/><path d="m91.879 179.828 2.281 2.278 8.725-8.737-2.282-2.278-8.724 8.737ZM94.179 192.545l-2.278 2.281 8.736 8.724 2.279-2.281-8.737-8.724Z"/><path d="m91.89 201.291 2.282 2.278 8.724-8.736-2.281-2.278-8.724 8.736ZM94.107 79.615l-2.278 2.281 8.737 8.725 2.278-2.282-8.737-8.724Z"/><path d="m91.818 88.365 2.282 2.278 8.724-8.737-2.281-2.278-8.725 8.737ZM94.107 102.727l-2.278 2.281 8.736 8.724 2.279-2.281-8.737-8.724Z"/><path d="m91.848 111.446 2.282 2.278 8.724-8.736-2.281-2.278-8.725 8.736ZM94.13 124.191l-2.278 2.281 8.737 8.725 2.278-2.282-8.737-8.724Z"/><path d="m91.861 132.91 2.282 2.278 8.724-8.737-2.281-2.278-8.725 8.737ZM94.046 11.267l-2.278 2.281 8.736 8.725 2.278-2.282-8.736-8.724Z"/><path d="m91.776 19.996 2.281 2.278 8.724-8.736-2.281-2.278-8.724 8.736ZM94.077 34.33l-2.278 2.282 8.736 8.724 2.278-2.281-8.736-8.724Z"/><path d="m91.794 43.065 2.281 2.279 8.725-8.737-2.282-2.278-8.724 8.736ZM94.082 55.795l-2.278 2.281 8.737 8.724 2.278-2.28-8.737-8.725Z"/><path d="m91.807 64.547 2.281 2.278 8.725-8.737-2.282-2.278-8.724 8.737ZM118.461 216.363l-2.278 2.281 8.737 8.724 2.278-2.281-8.737-8.724Z"/><path d="m116.17 225.085 2.281 2.278 8.725-8.736-2.282-2.278-8.724 8.736ZM141.421 216.339l-2.278 2.281 8.736 8.724 2.278-2.281-8.736-8.724Z"/><path d="m139.14 225.066 2.281 2.278 8.724-8.736-2.281-2.278-8.724 8.736ZM164.349 216.32l-2.278 2.281 8.736 8.725 2.278-2.282-8.736-8.724Z"/><path d="m162.096 225.06 2.281 2.278 8.725-8.736-2.281-2.279-8.725 8.737ZM187.307 216.325l-2.278 2.281 8.736 8.724 2.278-2.281-8.736-8.724Z"/><path d="m185.004 225.041 2.281 2.278 8.725-8.736-2.282-2.278-8.724 8.736ZM210.236 216.288l-2.278 2.281 8.736 8.725 2.278-2.282-8.736-8.724Z"/><path d="m207.962 225.035 2.281 2.278 8.724-8.737-2.281-2.278-8.724 8.737ZM118.493 239.409l-2.278 2.281 8.736 8.724 2.278-2.281-8.736-8.724Z"/><path d="m116.188 248.172 2.282 2.278 8.724-8.737-2.281-2.278-8.725 8.737ZM141.42 239.407l-2.278 2.282 8.737 8.724 2.278-2.281-8.737-8.725Z"/><path d="m139.126 248.165 2.282 2.278 8.724-8.736-2.281-2.278-8.725 8.736ZM164.379 239.419l-2.278 2.282 8.736 8.724 2.278-2.281-8.736-8.725Z"/><path d="m162.096 248.146 2.281 2.279 8.725-8.737-2.281-2.278-8.725 8.736ZM187.32 239.388l-2.278 2.281 8.737 8.725 2.278-2.281-8.737-8.725Z"/><path d="m185.022 248.11 2.282 2.278 8.724-8.736-2.281-2.278-8.725 8.736ZM210.267 239.387l-2.278 2.281 8.737 8.725 2.278-2.281-8.737-8.725Z"/><path d="m207.962 248.103 2.281 2.279 8.724-8.737-2.281-2.278-8.724 8.736ZM118.498 260.891l-2.278 2.281 8.737 8.724 2.278-2.281-8.737-8.724Z"/><path d="m116.219 269.636 2.281 2.278 8.724-8.737-2.281-2.278-8.724 8.737ZM141.444 260.89l-2.278 2.281 8.737 8.725 2.278-2.282-8.737-8.724Z"/><path d="m139.14 269.629 2.281 2.278 8.724-8.736-2.281-2.278-8.724 8.736ZM164.385 260.884l-2.278 2.281 8.736 8.724 2.278-2.281-8.736-8.724Z"/><path d="m162.109 269.61 2.281 2.278 8.724-8.736-2.281-2.278-8.724 8.736ZM187.331 260.865l-2.278 2.281 8.737 8.725 2.278-2.281-8.737-8.725Z"/><path d="m185.047 269.604 2.282 2.279 8.724-8.737-2.281-2.278-8.725 8.736ZM210.272 260.852l-2.278 2.281 8.736 8.724 2.279-2.281-8.737-8.724Z"/><path d="m207.974 269.568 2.281 2.278 8.724-8.737-2.281-2.278-8.724 8.737ZM118.413 147.991l-2.278 2.281 8.737 8.725 2.278-2.282-8.737-8.724Z"/><path d="m116.141 156.721 2.281 2.279 8.724-8.737-2.281-2.278-8.724 8.736ZM141.372 147.96l-2.278 2.281 8.737 8.724 2.278-2.281-8.737-8.724Z"/><path d="m139.084 156.702 2.281 2.278 8.725-8.736-2.281-2.278-8.725 8.736ZM164.317 147.959l-2.278 2.281 8.737 8.725 2.278-2.282-8.737-8.724Z"/><path d="m162.022 156.697 2.282 2.278 8.724-8.737-2.281-2.278-8.725 8.737ZM187.246 147.923l-2.278 2.281 8.737 8.724 2.278-2.281-8.737-8.724Z"/><path d="m184.98 156.672 2.281 2.278 8.724-8.736-2.281-2.278-8.724 8.736ZM210.193 147.922l-2.278 2.281 8.736 8.724 2.278-2.281-8.736-8.724Z"/><path d="m207.919 156.666 2.282 2.278 8.724-8.736-2.281-2.278-8.725 8.736ZM118.443 171.072l-2.278 2.282 8.737 8.724 2.278-2.281-8.737-8.725Z"/><path d="m116.158 179.791 2.281 2.278 8.725-8.737-2.282-2.278-8.724 8.737ZM141.384 171.041l-2.278 2.282 8.737 8.724 2.278-2.281-8.737-8.725Z"/><path d="m139.102 179.771 2.281 2.279 8.724-8.737-2.281-2.278-8.724 8.736ZM164.331 171.023l-2.279 2.281 8.737 8.725 2.278-2.282-8.736-8.724Z"/><path d="m162.041 179.765 2.281 2.278 8.724-8.736-2.281-2.278-8.724 8.736ZM187.277 171.022l-2.278 2.281 8.736 8.725 2.278-2.282-8.736-8.724Z"/><path d="m184.98 179.759 2.281 2.278 8.725-8.736-2.281-2.279-8.725 8.737ZM210.205 171.003l-2.278 2.282 8.736 8.724 2.278-2.281-8.736-8.725Z"/><path d="m207.936 179.752 2.282 2.279 8.724-8.737-2.281-2.278-8.725 8.736ZM118.449 192.554l-2.279 2.282 8.737 8.724 2.278-2.281-8.736-8.725Z"/><path d="m116.17 201.254 2.281 2.278 8.725-8.736-2.282-2.278-8.724 8.736ZM141.395 192.519l-2.278 2.281 8.736 8.724 2.279-2.281-8.737-8.724Z"/><path d="m139.127 201.248 2.281 2.278 8.725-8.736-2.282-2.279-8.724 8.737ZM164.353 192.505l-2.278 2.281 8.736 8.724 2.278-2.281-8.736-8.724Z"/><path d="m162.053 201.229 2.281 2.278 8.724-8.736-2.281-2.278-8.724 8.736ZM187.282 192.487l-2.278 2.281 8.736 8.724 2.279-2.281-8.737-8.724Z"/><path d="m184.992 201.223 2.281 2.278 8.725-8.736-2.281-2.278-8.725 8.736ZM210.228 192.468l-2.278 2.281 8.736 8.725 2.279-2.282-8.737-8.724Z"/><path d="m207.949 201.217 2.281 2.278 8.724-8.737-2.281-2.278-8.724 8.737ZM118.382 79.613l-2.278 2.281 8.737 8.724 2.278-2.28-8.737-8.725Z"/><path d="m116.103 88.34 2.281 2.279 8.725-8.737-2.282-2.278-8.724 8.737ZM141.311 79.612l-2.278 2.281 8.737 8.725 2.278-2.282-8.737-8.724Z"/><path d="m139.024 88.335 2.281 2.278 8.725-8.737-2.282-2.278-8.724 8.737ZM164.258 79.593l-2.279 2.281 8.737 8.725 2.278-2.281-8.736-8.725Z"/><path d="m161.982 88.328 2.281 2.278 8.724-8.736-2.281-2.278-8.724 8.736ZM187.197 79.562l-2.278 2.282 8.737 8.724 2.278-2.281-8.737-8.725Z"/><path d="m184.907 88.31 2.281 2.278 8.724-8.737-2.281-2.278-8.724 8.737ZM210.157 79.556l-2.279 2.281 8.737 8.724 2.278-2.28-8.736-8.725Z"/><path d="m207.858 88.29 2.281 2.278 8.725-8.736-2.282-2.278-8.724 8.736ZM118.396 102.694l-2.279 2.282 8.737 8.724 2.278-2.281-8.736-8.725Z"/><path d="m116.103 111.427 2.281 2.278 8.725-8.736-2.282-2.278-8.724 8.736ZM141.341 102.676l-2.278 2.281 8.736 8.724 2.278-2.281-8.736-8.724Z"/><path d="m139.06 111.421 2.281 2.278 8.724-8.737-2.281-2.278-8.724 8.737ZM164.269 102.675l-2.278 2.281 8.737 8.724 2.278-2.281-8.737-8.724Z"/><path d="m161.98 111.415 2.282 2.278 8.724-8.737-2.281-2.278-8.725 8.737ZM187.228 102.626l-2.278 2.281 8.737 8.724 2.278-2.281-8.737-8.724Z"/><path d="m184.925 111.378 2.281 2.278 8.724-8.737-2.281-2.278-8.724 8.737ZM210.157 102.607l-2.279 2.282 8.737 8.724 2.278-2.281-8.736-8.725Z"/><path d="m207.882 111.372 2.282 2.278 8.724-8.737-2.281-2.278-8.725 8.737ZM118.406 124.171l-2.279 2.281 8.737 8.725 2.278-2.282-8.736-8.724Z"/><path d="m116.128 132.904 2.281 2.278 8.725-8.737-2.282-2.278-8.724 8.737ZM141.346 124.14l-2.278 2.281 8.737 8.725 2.278-2.282-8.737-8.724Z"/><path d="m139.054 132.885 2.281 2.278 8.725-8.736-2.281-2.279-8.725 8.737ZM164.293 124.122l-2.278 2.281 8.736 8.724 2.279-2.281-8.737-8.724Z"/><path d="m161.994 132.879 2.281 2.278 8.724-8.737-2.281-2.278-8.724 8.737ZM187.221 124.103l-2.278 2.281 8.737 8.725 2.278-2.282-8.737-8.724Z"/><path d="m184.968 132.855 2.282 2.278 8.724-8.737-2.281-2.278-8.725 8.737ZM210.18 124.089l-2.278 2.282 8.736 8.724 2.278-2.281-8.736-8.725Z"/><path d="m207.894 132.835 2.282 2.279 8.724-8.737-2.281-2.278-8.725 8.736ZM118.321 11.247l-2.278 2.281 8.737 8.724 2.278-2.28-8.737-8.725Z"/><path d="m116.042 19.99 2.282 2.279 8.724-8.737-2.281-2.278-8.725 8.737ZM141.261 11.216l-2.278 2.281 8.737 8.724 2.278-2.28-8.737-8.725Z"/><path d="m138.987 19.971 2.281 2.279 8.724-8.737-2.281-2.278-8.724 8.736ZM164.221 11.21l-2.278 2.281 8.736 8.724 2.278-2.281-8.736-8.724Z"/><path d="m161.938 19.952 2.281 2.278 8.725-8.736-2.282-2.278-8.724 8.736ZM187.166 11.209l-2.278 2.281 8.737 8.725 2.278-2.282-8.737-8.724Z"/><path d="m184.895 19.928 2.281 2.278 8.724-8.736-2.281-2.278-8.724 8.736ZM210.095 11.19l-2.278 2.281 8.736 8.725 2.279-2.282-8.737-8.724Z"/><path d="m207.834 19.922 2.281 2.278 8.725-8.736-2.282-2.278-8.724 8.736ZM118.334 34.31l-2.278 2.282 8.736 8.724 2.278-2.28-8.736-8.725Z"/><path d="m116.061 43.059 2.281 2.278 8.724-8.737-2.281-2.278-8.724 8.737ZM141.28 34.31l-2.278 2.281 8.736 8.724 2.279-2.28-8.737-8.725Z"/><path d="m139.018 43.053 2.281 2.278 8.724-8.737-2.281-2.278-8.724 8.737ZM164.238 34.279l-2.278 2.281 8.737 8.724 2.278-2.28-8.737-8.725Z"/><path d="m161.943 43.034 2.281 2.278 8.725-8.736-2.282-2.279-8.724 8.737ZM187.179 34.272l-2.278 2.282 8.737 8.724 2.278-2.281-8.737-8.725Z"/><path d="m184.895 43.015 2.281 2.278 8.724-8.737-2.281-2.278-8.724 8.737ZM210.125 34.272l-2.278 2.281 8.737 8.724 2.278-2.28-8.737-8.725Z"/><path d="m207.852 43.009 2.281 2.278 8.725-8.737-2.282-2.278-8.724 8.737ZM118.357 55.793l-2.278 2.281 8.737 8.725 2.278-2.282-8.737-8.724Z"/><path d="m116.073 64.523 2.281 2.278 8.724-8.736-2.281-2.279-8.724 8.737ZM141.303 55.774l-2.278 2.281 8.736 8.724 2.279-2.28-8.737-8.725Z"/><path d="m139.03 64.517 2.281 2.278 8.724-8.737-2.281-2.278-8.724 8.737ZM164.231 55.755l-2.278 2.282 8.737 8.724 2.278-2.281-8.737-8.725Z"/><path d="m161.968 64.51 2.282 2.278 8.724-8.736-2.281-2.279-8.725 8.737ZM187.189 55.742l-2.278 2.281 8.737 8.725 2.278-2.282-8.737-8.724Z"/><path d="m184.894 64.49 2.282 2.279 8.724-8.737-2.281-2.278-8.725 8.737ZM210.131 55.736l-2.278 2.281 8.736 8.724 2.278-2.28-8.736-8.725Z"/><path d="m207.864 64.455 2.282 2.278 8.724-8.737-2.281-2.278-8.725 8.737ZM230.906 216.279l-2.278 2.282 8.736 8.724 2.279-2.281-8.737-8.725Z"/><path d="m228.624 225.019 2.281 2.278 8.725-8.737-2.282-2.278-8.724 8.737ZM253.852 216.261l-2.278 2.281 8.737 8.725 2.278-2.282-8.737-8.724Z"/><path d="m251.581 225.012 2.282 2.278 8.724-8.736-2.281-2.278-8.725 8.736ZM276.824 216.26l-2.278 2.281 8.736 8.725 2.278-2.282-8.736-8.724Z"/><path d="m274.52 224.981 2.281 2.278 8.725-8.737-2.282-2.278-8.724 8.737ZM299.751 216.241l-2.278 2.282 8.737 8.724 2.278-2.281-8.737-8.725Z"/><path d="m297.458 224.975 2.282 2.278 8.724-8.737-2.281-2.278-8.725 8.737ZM322.698 216.205l-2.279 2.281 8.737 8.725 2.278-2.282-8.736-8.724Z"/><path d="m320.434 224.968 2.281 2.278 8.724-8.736-2.281-2.279-8.724 8.737ZM230.937 239.361l-2.279 2.281 8.737 8.725 2.278-2.282-8.736-8.724Z"/><path d="m228.642 248.105 2.282 2.278 8.724-8.736-2.281-2.279-8.725 8.737ZM253.864 239.342l-2.278 2.282 8.736 8.724 2.279-2.281-8.737-8.725Z"/><path d="m251.58 248.099 2.282 2.278 8.724-8.737-2.281-2.278-8.725 8.737ZM276.823 239.311l-2.278 2.282 8.737 8.724 2.278-2.281-8.737-8.725Z"/><path d="m274.525 248.062 2.281 2.278 8.725-8.736-2.282-2.279-8.724 8.737ZM299.781 239.305l-2.278 2.281 8.736 8.725 2.279-2.282-8.737-8.724Z"/><path d="m297.494 248.043 2.281 2.278 8.725-8.737-2.282-2.278-8.724 8.737ZM322.71 239.304l-2.278 2.282 8.736 8.724 2.278-2.281-8.736-8.725Z"/><path d="m320.433 248.037 2.281 2.278 8.724-8.736-2.281-2.278-8.724 8.736ZM230.941 260.843l-2.278 2.282 8.737 8.724 2.278-2.281-8.737-8.725Z"/><path d="m228.654 269.569 2.282 2.278 8.724-8.736-2.281-2.278-8.725 8.736ZM253.888 260.807l-2.278 2.281 8.736 8.724 2.278-2.281-8.736-8.724Z"/><path d="m251.594 269.562 2.281 2.279 8.724-8.737-2.281-2.278-8.724 8.736ZM276.834 260.77l-2.278 2.282 8.736 8.724 2.278-2.281-8.736-8.725Z"/><path d="m274.568 269.539 2.282 2.278 8.724-8.737-2.281-2.278-8.725 8.737ZM299.774 260.757l-2.278 2.282 8.737 8.724 2.278-2.281-8.737-8.725Z"/><path d="m297.494 269.52 2.281 2.278 8.725-8.737-2.282-2.278-8.724 8.737ZM322.733 260.769l-2.278 2.281 8.736 8.725 2.278-2.282-8.736-8.724Z"/><path d="m320.428 269.501 2.281 2.278 8.724-8.736-2.281-2.278-8.724 8.736ZM230.875 147.883l-2.278 2.282 8.736 8.724 2.279-2.281-8.737-8.725Z"/><path d="m228.587 156.655 2.281 2.278 8.725-8.736-2.282-2.278-8.724 8.736ZM253.816 147.895l-2.278 2.281 8.737 8.725 2.278-2.282-8.737-8.724Z"/><path d="m251.539 156.619 2.282 2.278 8.724-8.737-2.281-2.278-8.725 8.737ZM276.762 147.876l-2.278 2.282 8.737 8.724 2.278-2.281-8.737-8.725Z"/><path d="m274.459 156.63 2.282 2.278 8.724-8.736-2.281-2.278-8.725 8.736ZM299.69 147.858l-2.278 2.281 8.736 8.725 2.278-2.282-8.736-8.724Z"/><path d="m297.416 156.606 2.281 2.278 8.724-8.737-2.281-2.278-8.724 8.737ZM322.649 147.844l-2.278 2.281 8.737 8.725 2.278-2.281-8.737-8.725Z"/><path d="m320.361 156.587 2.281 2.278 8.724-8.736-2.281-2.278-8.724 8.736ZM230.875 170.978l-2.278 2.281 8.737 8.724 2.278-2.281-8.737-8.724Z"/><path d="m228.6 179.737 2.281 2.278 8.725-8.737-2.282-2.278-8.724 8.737ZM253.833 170.964l-2.278 2.281 8.737 8.724 2.278-2.281-8.737-8.724Z"/><path d="m251.543 179.718 2.282 2.278 8.724-8.737-2.281-2.278-8.725 8.737ZM276.774 170.958l-2.278 2.281 8.736 8.725 2.278-2.282-8.736-8.724Z"/><path d="m274.495 179.699 2.281 2.278 8.724-8.736-2.281-2.279-8.724 8.737ZM299.72 170.939l-2.278 2.282 8.737 8.724 2.278-2.281-8.737-8.725Z"/><path d="m297.434 179.693 2.281 2.278 8.724-8.737-2.281-2.278-8.724 8.737ZM322.662 170.908l-2.278 2.281 8.737 8.725 2.278-2.281-8.737-8.725Z"/><path d="m320.379 179.656 2.281 2.278 8.724-8.736-2.281-2.279-8.724 8.737ZM230.898 192.459l-2.278 2.282 8.736 8.724 2.279-2.281-8.737-8.725Z"/><path d="m228.594 201.2 2.282 2.279 8.724-8.737-2.281-2.278-8.725 8.736ZM253.839 192.428l-2.278 2.282 8.737 8.724 2.278-2.281-8.737-8.725Z"/><path d="m251.538 201.182 2.281 2.278 8.725-8.737-2.282-2.278-8.724 8.737ZM276.798 192.423l-2.278 2.281 8.737 8.724 2.278-2.281-8.737-8.724Z"/><path d="m274.508 201.163 2.281 2.278 8.724-8.736-2.281-2.278-8.724 8.736ZM299.726 192.404l-2.278 2.281 8.736 8.724 2.278-2.281-8.736-8.724Z"/><path d="m297.446 201.157 2.282 2.278 8.724-8.737-2.281-2.278-8.725 8.737ZM322.673 192.385l-2.278 2.282 8.736 8.724 2.278-2.281-8.736-8.725Z"/><path d="m320.404 201.133 2.281 2.278 8.724-8.737-2.281-2.278-8.724 8.737ZM230.827 79.548l-2.278 2.281 8.736 8.725 2.278-2.282-8.736-8.724Z"/><path d="m228.54 88.275 2.281 2.278 8.724-8.737-2.281-2.278-8.724 8.737ZM253.754 79.512l-2.278 2.281 8.737 8.724 2.278-2.281-8.737-8.724Z"/><path d="m251.478 88.269 2.282 2.278 8.724-8.737-2.281-2.278-8.725 8.737ZM276.714 79.498l-2.278 2.281 8.736 8.725 2.278-2.281-8.736-8.725Z"/><path d="m274.44 88.25 2.282 2.278 8.724-8.737-2.281-2.278-8.725 8.736ZM299.659 79.48l-2.278 2.281 8.737 8.724 2.278-2.28-8.737-8.725Z"/><path d="m297.379 88.243 2.281 2.278 8.725-8.736-2.282-2.278-8.724 8.736ZM322.605 79.479l-2.278 2.281 8.737 8.725 2.278-2.282-8.737-8.724Z"/><path d="m320.3 88.237 2.281 2.278 8.724-8.736-2.281-2.278-8.724 8.736ZM230.839 102.612l-2.278 2.281 8.737 8.724 2.278-2.281-8.737-8.724Z"/><path d="m228.557 111.361 2.282 2.278 8.724-8.736-2.281-2.278-8.725 8.736ZM253.785 102.593l-2.278 2.282 8.736 8.724 2.278-2.281-8.736-8.725Z"/><path d="m251.514 111.337 2.281 2.278 8.725-8.736-2.282-2.278-8.724 8.736ZM276.731 102.593l-2.278 2.281 8.737 8.724 2.278-2.281-8.737-8.724Z"/><path d="m274.435 111.331 2.282 2.278 8.724-8.736-2.281-2.278-8.725 8.736ZM299.672 102.561l-2.278 2.282 8.737 8.724 2.278-2.281-8.737-8.725Z"/><path d="m297.379 111.312 2.281 2.278 8.725-8.736-2.282-2.279-8.724 8.737ZM322.618 102.542l-2.278 2.282 8.737 8.724 2.278-2.281-8.737-8.725Z"/><path d="m320.335 111.305 2.282 2.278 8.724-8.736-2.281-2.278-8.725 8.736ZM230.862 124.076l-2.278 2.282 8.736 8.724 2.278-2.281-8.736-8.725Z"/><path d="m228.588 132.808 2.281 2.278 8.724-8.737-2.281-2.278-8.724 8.737ZM253.809 124.075l-2.278 2.282 8.736 8.724 2.278-2.281-8.736-8.725Z"/><path d="m251.527 132.801 2.281 2.278 8.724-8.736-2.281-2.278-8.724 8.736ZM276.736 124.074l-2.278 2.282 8.737 8.724 2.278-2.281-8.737-8.725Z"/><path d="m274.447 132.813 2.282 2.278 8.724-8.737-2.281-2.278-8.725 8.737ZM299.695 124.026l-2.278 2.281 8.737 8.724 2.278-2.281-8.737-8.724Z"/><path d="m297.392 132.776 2.281 2.278 8.724-8.736-2.281-2.278-8.724 8.736ZM322.624 124.025l-2.278 2.281 8.736 8.725 2.279-2.282-8.737-8.724Z"/><path d="m320.349 132.77 2.281 2.278 8.725-8.737-2.282-2.278-8.724 8.737ZM230.783 11.182l-2.278 2.281 8.737 8.725 2.278-2.282-8.737-8.724Z"/><path d="m228.497 19.924 2.281 2.278 8.724-8.737-2.281-2.278-8.724 8.737ZM253.724 11.15l-2.278 2.282 8.736 8.725 2.278-2.282-8.736-8.724Z"/><path d="m251.441 19.887 2.281 2.279 8.725-8.737-2.282-2.278-8.724 8.736ZM276.652 11.132l-2.278 2.282 8.737 8.724 2.278-2.281-8.737-8.725Z"/><path d="m274.38 19.881 2.281 2.278 8.724-8.736-2.281-2.278-8.724 8.736ZM299.598 11.114l-2.278 2.281 8.737 8.724 2.278-2.28-8.737-8.725Z"/><path d="m297.337 19.875 2.281 2.278 8.725-8.736-2.282-2.279-8.724 8.737ZM322.57 11.113l-2.278 2.281 8.736 8.724 2.278-2.28-8.736-8.725Z"/><path d="m320.294 19.826 2.281 2.278 8.724-8.737-2.281-2.278-8.724 8.737ZM230.796 34.246l-2.278 2.281 8.736 8.724 2.278-2.28-8.736-8.725Z"/><path d="m228.515 42.993 2.281 2.278 8.725-8.737-2.282-2.278-8.724 8.737ZM253.754 34.232l-2.278 2.282 8.737 8.724 2.278-2.281-8.737-8.725Z"/><path d="m251.441 42.974 2.281 2.278 8.725-8.737-2.282-2.278-8.724 8.737ZM276.665 34.196l-2.278 2.281 8.737 8.725 2.278-2.282-8.737-8.724Z"/><path d="m274.399 42.968 2.281 2.278 8.724-8.737-2.281-2.278-8.724 8.736ZM299.611 34.195l-2.278 2.282 8.737 8.724 2.278-2.281-8.737-8.725Z"/><path d="m297.355 42.944 2.281 2.278 8.725-8.737-2.281-2.278-8.725 8.737ZM322.556 34.194l-2.278 2.282 8.737 8.724 2.278-2.281-8.737-8.725Z"/><path d="m320.275 42.955 2.282 2.278 8.724-8.736L329 34.218l-8.725 8.737ZM230.801 55.71l-2.278 2.281 8.736 8.725 2.279-2.282-8.737-8.724Z"/><path d="m228.528 64.456 2.281 2.278 8.724-8.736-2.281-2.278-8.724 8.736ZM253.747 55.71l-2.278 2.28 8.737 8.725 2.278-2.281-8.737-8.725Z"/><path d="m251.466 64.45 2.282 2.278 8.724-8.736-2.281-2.278-8.725 8.736ZM276.689 55.66l-2.279 2.281 8.737 8.725 2.278-2.281-8.736-8.725Z"/><path d="m274.429 64.413 2.281 2.279 8.725-8.737-2.282-2.278-8.724 8.736ZM299.635 55.66l-2.279 2.281 8.737 8.724 2.278-2.28-8.736-8.725Z"/><path d="m297.349 64.408 2.281 2.278 8.725-8.737-2.282-2.278-8.724 8.737ZM322.58 55.659l-2.278 2.281 8.737 8.725 2.278-2.282-8.737-8.724Z"/><path d="m320.288 64.42 2.281 2.277 8.725-8.736-2.282-2.278-8.724 8.736ZM346.984 216.208l-2.278 2.282 8.737 8.724 2.278-2.281-8.737-8.725Z"/><path d="m344.687 224.932 2.281 2.278 8.724-8.736-2.281-2.278-8.724 8.736ZM346.985 239.285l-2.278 2.281 8.737 8.725 2.278-2.282-8.737-8.724Z"/><path d="m344.7 248.031 2.281 2.278 8.724-8.736-2.281-2.279-8.724 8.737ZM346.99 260.749l-2.278 2.282 8.737 8.724 2.278-2.281-8.737-8.725Z"/><path d="m344.713 269.495 2.281 2.278 8.724-8.737-2.281-2.278-8.724 8.737ZM346.923 147.825l-2.278 2.281 8.736 8.724 2.278-2.281-8.736-8.724Z"/><path d="m344.626 156.581 2.281 2.278 8.725-8.736-2.281-2.279-8.725 8.737ZM346.936 170.906l-2.278 2.282 8.737 8.724 2.278-2.281-8.737-8.725Z"/><path d="m344.663 179.65 2.281 2.278 8.724-8.736-2.281-2.278-8.724 8.736ZM346.959 192.371l-2.278 2.281 8.737 8.724 2.278-2.281-8.737-8.724Z"/><path d="m344.675 201.114 2.281 2.278 8.724-8.736-2.281-2.278-8.724 8.736ZM346.863 79.459l-2.279 2.281 8.737 8.724 2.278-2.28-8.736-8.725Z"/><path d="m344.585 88.213 2.281 2.278 8.725-8.737-2.282-2.278-8.724 8.737ZM346.875 102.54l-2.279 2.282 8.737 8.724 2.278-2.281-8.736-8.725Z"/><path d="m344.584 111.299 2.281 2.278 8.725-8.736-2.282-2.278-8.724 8.736ZM346.899 124.005l-2.278 2.281 8.736 8.724 2.279-2.281-8.737-8.724Z"/><path d="m344.597 132.763 2.281 2.279 8.725-8.737-2.282-2.278-8.724 8.736ZM346.826 11.093l-2.278 2.281 8.737 8.725 2.278-2.282-8.737-8.724Z"/><path d="m344.542 19.837 2.281 2.279 8.724-8.737-2.281-2.278-8.724 8.736ZM346.857 34.175l-2.278 2.28 8.737 8.725 2.278-2.281-8.737-8.724Z"/><path d="m344.56 42.906 2.281 2.278 8.724-8.736-2.281-2.279-8.724 8.737ZM346.862 55.64l-2.278 2.28 8.737 8.725 2.278-2.281-8.737-8.725Z"/><path d="m344.572 64.37 2.281 2.278 8.724-8.736-2.281-2.279-8.724 8.737Z"/></g><path d="M125.061 0h-4.605v11.514h4.605V0Z" fill="#FF5722"/><path d="M125.061 0h-4.605v11.514h4.605V0ZM125.061 190.001h-4.605v11.515h4.605v-11.515ZM33.515 98.455H22v4.606h11.515v-4.606Z" fill="#FF5722"/><path d="M33.515 98.455H22v4.606h11.515v-4.606ZM223.516 98.455h-11.515v4.606h11.515v-4.606ZM53.154 27.883l-3.256 3.256 8.141 8.142 3.257-3.257-8.142-8.141Z" fill="#FF5722"/><path d="m53.154 27.883-3.256 3.256 8.141 8.142 3.257-3.257-8.142-8.141ZM187.487 162.244l-3.256 3.257 8.141 8.142 3.257-3.257-8.142-8.142ZM58.03 162.228l-8.141 8.144 3.257 3.256 8.14-8.143-3.257-3.257Z" fill="#FF5722"/><path d="m58.03 162.228-8.141 8.144 3.257 3.256 8.14-8.143-3.257-3.257ZM192.375 27.878l-8.14 8.143 3.257 3.256 8.141-8.143-3.258-3.256ZM102.043 2.128l-4.484 1.05 2.623 11.211 4.485-1.05-2.624-11.21Z" fill="#FF5722"/><path d="m102.043 2.128-4.484 1.05 2.623 11.211 4.485-1.05-2.624-11.21ZM145.341 187.139l-4.485 1.049 2.624 11.211 4.484-1.049-2.623-11.211ZM35.347 118.848l-11.21 2.628 1.05 4.484 11.211-2.628-1.05-4.484Z" fill="#FF5722"/><path d="m35.347 118.848-11.21 2.628 1.05 4.484 11.211-2.628-1.05-4.484ZM220.345 75.566l-11.211 2.626 1.05 4.484 11.211-2.625-1.05-4.485ZM38.373 45.665l-2.429 3.914 9.784 6.07 2.428-3.913-9.783-6.07Z" fill="#FF5722"/><path d="m38.373 45.665-2.429 3.914 9.784 6.07 2.428-3.913-9.783-6.07ZM199.798 145.852l-2.429 3.913 9.784 6.071 2.428-3.913-9.783-6.071ZM73.755 175.359l-6.072 9.783 3.913 2.429 6.072-9.783-3.913-2.429Z" fill="#FF5722"/><path d="m73.755 175.359-6.072 9.783 3.913 2.429 6.072-9.783-3.913-2.429ZM173.921 13.928l-6.072 9.782 3.913 2.43 6.072-9.783-3.913-2.43ZM87.737 6.242l-4.281 1.7 4.248 10.701 4.28-1.699-4.247-10.702Z" fill="#FF5722"/><path d="m87.737 6.242-4.281 1.7 4.248 10.701 4.28-1.699-4.247-10.702ZM157.817 182.855l-4.281 1.699 4.248 10.702 4.281-1.699-4.248-10.702ZM38.956 131.525l-10.702 4.248 1.7 4.281 10.701-4.248-1.699-4.281Z" fill="#FF5722"/><path d="m38.956 131.525-10.702 4.248 1.7 4.281 10.701-4.248-1.699-4.281ZM215.569 61.444l-10.702 4.248 1.699 4.28 10.702-4.247-1.699-4.28ZM31.176 58.698l-1.826 4.228 10.57 4.566 1.827-4.228-10.57-4.566Z" fill="#FF5722"/><path d="m31.176 58.698-1.826 4.228 10.57 4.566 1.827-4.228-10.57-4.566ZM205.623 134.038l-1.826 4.228 10.57 4.566 1.826-4.228-10.57-4.566ZM85.282 181.792l-4.564 10.571 4.229 1.826 4.563-10.571-4.228-1.826Z" fill="#FF5722"/><path d="m85.282 181.792-4.564 10.571 4.229 1.826 4.563-10.571-4.228-1.826ZM160.581 7.344l-4.563 10.571 4.228 1.826L164.81 9.17l-4.229-1.826ZM67.124 16.727l-3.78 2.63 6.574 9.452 3.78-2.63-6.574-9.452Z" fill="#FF5722"/><path d="m67.124 16.727-3.78 2.63 6.574 9.452 3.78-2.63-6.574-9.452ZM175.615 172.698l-3.782 2.63 6.575 9.452 3.781-2.63-6.574-9.452ZM48.185 149.818l-9.452 6.574 2.63 3.781 9.452-6.574-2.63-3.781Z" fill="#FF5722"/><path d="m48.185 149.818-9.452 6.574 2.63 3.781 9.452-6.574-2.63-3.781ZM204.17 41.351l-9.453 6.575 2.63 3.78 9.453-6.574-2.63-3.78ZM23.993 80.677l-.814 4.533 11.333 2.035.814-4.533-11.333-2.035Z" fill="#FF5722"/><path d="m23.993 80.677-.814 4.533 11.333 2.035.814-4.533-11.333-2.035ZM211.018 114.268l-.814 4.533 11.333 2.035.814-4.533-11.333-2.035ZM104.731 188.187l-2.033 11.333 4.534.813L109.265 189l-4.534-.813Z" fill="#FF5722"/><path d="m104.731 188.187-2.033 11.333 4.534.813L109.265 189l-4.534-.813ZM138.294 1.172l-2.033 11.333 4.533.813 2.033-11.333-4.533-.813Z" fill="#FF5722"/></g><defs><clipPath id="a"><path fill="#fff" d="M0 0h447.511v272H0z"/></clipPath></defs></svg>