<svg width="100" height="100" fill="none" xmlns="http://www.w3.org/2000/svg"><rect width="100" height="100" rx="32" fill="#FF5722"/><path fill-rule="evenodd" clip-rule="evenodd" d="M33 46.636C33 37.436 40.688 30 49.987 30 59.312 30 67 37.436 67 46.636c0 4.635-1.686 8.94-4.461 12.587a44.126 44.126 0 0 1-11.082 10.282c-.972.636-1.85.684-2.916 0a43.281 43.281 0 0 1-11.08-10.282C34.684 55.575 33 51.271 33 46.636Zm11.389.518c0 3.081 2.514 5.505 5.598 5.505 3.085 0 5.625-2.424 5.625-5.505 0-3.058-2.54-5.6-5.625-5.6-3.084 0-5.599 2.542-5.599 5.6Z" fill="#fff"/></svg>