<svg width="40" height="40" fill="none" xmlns="http://www.w3.org/2000/svg"><path d="M15.248 12.48a1.66 1.66 0 0 0-1.667 1.667c0 .917.75 1.667 1.667 1.667.916 0 1.666-.75 1.666-1.667s-.75-1.667-1.667-1.667Z" fill="#FF5722"/><path d="M35.767 8.4c-1.4-3.25-4.484-5.067-8.784-5.067H13.017a9.68 9.68 0 0 0-9.684 9.684v13.966c0 4.3 1.817 7.384 5.067 8.784.317.133.683.05.917-.184L35.583 9.317c.25-.25.334-.617.184-.917Zm-18.217 12a3.34 3.34 0 0 1-2.35.933c-.85 0-1.7-.316-2.35-.933-1.7-1.6-3.567-4.15-2.85-7.183.633-2.75 3.067-3.984 5.2-3.984s4.567 1.234 5.2 4c.7 3.017-1.167 5.567-2.85 7.167ZM32.448 34.216c.367.367.317.967-.133 1.217-1.467.816-3.25 1.233-5.333 1.233H13.014c-.484 0-.684-.567-.35-.9l10.067-10.067a.825.825 0 0 1 1.183 0l8.533 8.517ZM36.67 13.015V26.98c0 2.084-.417 3.884-1.234 5.334-.25.45-.85.483-1.216.133l-8.534-8.533a.825.825 0 0 1 0-1.183l10.067-10.067c.35-.333.917-.133.917.35Z" fill="#FF5722"/></svg>