<svg xmlns="http://www.w3.org/2000/svg" width="114" height="353" fill="none"><g stroke="#FF5722" clip-path="url(#a)"><path stroke-miterlimit="10" stroke-width=".858" d="M189.886 1.021c25.11-1.934 49.946 18.084 53.38 43.034 1.785 12.91-1.511 26.21.927 39.017 3.422 17.98 17.499 31.977 32.218 42.873 14.718 10.896 31.039 20.189 42.61 34.37 11.582 14.18 17.305 35.331 7.611 50.862-9.374 15.027-29.872 20.258-39.074 35.399-14.97 24.619 8.206 58.691-4.486 84.557-6.409 13.059-21.277 20.716-35.823 20.853-14.547.137-28.579-6.341-39.852-15.542-13.299-10.85-23.966-25.821-40.058-31.784-26.198-9.694-53.735 8.126-81.123 13.597-25.797 5.162-54.834-2.094-72.013-22.02-17.179-19.926-19.113-52.797-1.236-72.104 9.648-10.427 24.355-17.134 28.956-30.582 5.711-16.687-7.061-33.305-16.595-48.138-7.909-12.303-14.146-26.209-14.501-40.825-.355-14.627 6.1-30.009 18.724-37.402 30.776-18.05 72.276 16.664 101.301-8.516 22.421-19.433 21.654-54.764 59.034-57.649Z"/><path stroke-linecap="round" stroke-linejoin="round" stroke-width=".824" d="M188.616 10.36c23.771-1.83 47.291 17.123 50.541 40.745 1.683 12.224-1.43 24.813.881 36.934 3.239 17.03 16.573 30.272 30.502 40.584 13.928 10.312 29.379 19.113 40.344 32.539 10.964 13.425 16.378 33.442 7.21 48.149-8.881 14.226-28.281 19.182-37.002 33.512-14.169 23.302 7.771 55.566-4.246 80.058-6.066 12.361-20.143 19.606-33.923 19.743-13.769.137-27.057-6.009-37.724-14.707-12.589-10.266-22.684-24.447-37.929-30.089-24.801-9.179-50.873 7.691-76.796 12.876-24.424 4.887-51.915-1.98-68.179-20.842C6.02 271 4.2 239.881 21.128 221.603c9.144-9.865 23.062-16.229 27.41-28.944 5.403-15.795-6.683-31.532-15.713-45.575-7.486-11.651-13.391-24.813-13.735-38.65-.343-13.849 5.78-28.407 17.729-35.411 29.14-17.088 68.43 15.783 95.899-8.058 21.219-18.415 20.498-51.858 55.898-54.593v-.011Z"/><path stroke-linecap="round" stroke-linejoin="round" stroke-width=".79" d="M187.345 19.7c22.433-1.728 44.625 16.16 47.703 38.444 1.591 11.537-1.35 23.417.824 34.862 3.056 16.069 15.646 28.567 28.785 38.307 13.15 9.74 27.731 18.037 38.078 30.707 10.346 12.67 15.462 31.566 6.798 45.449-8.378 13.425-26.69 18.106-34.919 31.634-13.368 21.997 7.337 52.441-4.006 75.549-5.722 11.674-19.01 18.507-32.012 18.633-13.001.126-25.534-5.666-35.605-13.883-11.88-9.694-21.414-23.073-35.789-28.395-23.406-8.664-48.013 7.256-72.482 12.143-23.05 4.612-48.985-1.866-64.345-19.674-15.359-17.797-17.076-47.177-1.098-64.425 8.63-9.316 21.757-15.313 25.866-27.319 5.104-14.913-6.307-29.758-14.833-43.011-7.073-10.987-12.636-23.417-12.956-36.476-.32-13.07 5.448-26.816 16.721-33.42 27.503-16.126 64.574 14.89 90.508-7.6 20.029-17.373 19.342-48.938 52.751-51.514l.011-.011Z"/><path stroke-linecap="round" stroke-linejoin="round" stroke-width=".755" d="M186.075 29.04c21.093-1.626 41.969 15.198 44.853 36.154 1.499 10.85-1.27 22.02.778 32.78 2.884 15.107 14.707 26.872 27.068 36.017 12.361 9.156 26.072 16.962 35.812 28.876 9.728 11.914 14.535 29.689 6.398 42.736-7.875 12.636-25.1 17.019-32.837 29.746-12.578 20.681 6.902 49.317-3.765 71.051-5.391 10.976-17.877 17.408-30.101 17.523-12.223.114-24.011-5.334-33.477-13.059-11.17-9.11-20.132-21.7-33.66-26.702-22.009-8.148-45.151 6.822-68.167 11.423-21.677 4.337-46.066-1.763-60.51-18.496-14.444-16.744-16.058-44.361-1.03-60.579 8.114-8.755 20.464-14.398 24.32-25.694 4.796-14.02-5.928-27.983-13.94-40.447-6.65-10.335-11.891-22.02-12.188-34.301-.298-12.292 5.127-25.214 15.725-31.428 25.866-15.165 60.728 13.997 85.117-7.153 18.839-16.344 18.198-46.033 49.604-48.448Z"/><path stroke-linecap="round" stroke-linejoin="round" stroke-width=".71" d="M184.804 38.379c19.766-1.523 39.303 14.237 42.015 33.866 1.396 10.163-1.19 20.624.733 30.707 2.701 14.158 13.779 25.168 25.35 33.74 11.572 8.573 24.424 15.886 33.535 27.045 9.11 11.159 13.619 27.8 5.985 40.024-7.382 11.834-23.508 15.943-30.753 27.857-11.777 19.377 6.467 46.192-3.525 66.542-5.047 10.278-16.744 16.298-28.2 16.412-11.446.115-22.49-4.99-31.36-12.223-10.461-8.538-18.862-20.327-31.531-25.008-20.613-7.634-42.29 6.387-63.841 10.701-20.304 4.063-43.148-1.648-56.676-17.328-13.529-15.679-15.04-41.545-.973-56.744 7.6-8.207 19.17-13.483 22.787-24.069 4.487-13.128-5.55-26.21-13.059-37.884-6.226-9.682-11.136-20.624-11.41-32.126-.287-11.503 4.806-23.612 14.73-29.437 24.229-14.203 56.881 13.116 79.714-6.695 17.637-15.303 17.042-43.114 46.456-45.38h.023Z"/><path stroke-linecap="round" stroke-linejoin="round" stroke-width=".675" d="M183.534 47.73c18.426-1.42 36.647 13.264 39.176 31.576 1.305 9.477-1.11 19.228.676 28.625 2.518 13.196 12.841 23.462 23.645 31.462 10.793 7.989 22.776 14.81 31.268 25.225 8.493 10.404 12.693 25.923 5.586 37.323-6.879 11.033-21.918 14.867-28.67 25.969-10.976 18.06 6.02 43.068-3.285 62.044-4.704 9.579-15.611 15.199-26.29 15.302-10.678.103-20.967-4.658-29.242-11.4-9.763-7.954-17.58-18.941-29.391-23.313-19.216-7.119-39.428 5.963-59.526 9.98-18.93 3.788-40.23-1.534-52.842-16.161-12.613-14.615-14.02-38.741-.904-52.899 7.084-7.645 17.865-12.578 21.242-22.432 4.189-12.247-5.173-24.436-12.178-35.32-5.803-9.03-10.38-19.228-10.644-29.952-.263-10.724 4.475-22.02 13.734-27.445 22.582-13.242 53.037 12.223 74.325-6.25 16.447-14.271 15.886-40.195 43.32-42.312v-.023Z"/><path stroke-linecap="round" stroke-linejoin="round" stroke-width=".641" d="M182.252 57.069c17.087-1.317 33.992 12.303 36.326 29.287 1.214 8.79-1.03 17.832.63 26.553 2.335 12.235 11.914 21.757 21.929 29.174 10.014 7.416 21.116 13.734 29.002 23.394 7.885 9.648 11.777 24.034 5.184 34.61-6.386 10.232-20.326 13.791-26.587 24.092-10.186 16.744 5.586 39.943-3.044 57.534-4.361 8.882-14.478 14.101-24.378 14.192-9.9.092-19.445-4.315-27.114-10.575-9.053-7.382-16.309-17.568-27.262-21.62-17.831-6.592-36.567 5.528-55.2 9.248-17.556 3.513-37.31-1.431-49.008-14.982-11.697-13.562-13.001-35.926-.835-49.065 6.57-7.096 16.572-11.663 19.697-20.807 3.88-11.354-4.807-22.662-11.296-32.756-5.38-8.367-9.626-17.832-9.866-27.778-.24-9.945 4.154-20.418 12.738-25.454 20.945-12.28 49.18 11.343 68.934-5.79 15.257-13.231 14.73-37.277 40.173-39.235l-.023-.023Z"/><path stroke-linecap="round" stroke-linejoin="round" stroke-width=".607" d="M180.982 66.408c15.748-1.213 31.325 11.342 33.488 26.987 1.122 8.104-.95 16.436.584 24.47 2.151 11.285 10.976 20.052 20.212 26.896 9.225 6.833 19.468 12.67 26.724 21.563 7.268 8.893 10.85 22.157 4.773 31.897-5.883 9.431-18.736 12.704-24.516 22.204-9.385 15.439 5.151 36.819-2.815 53.036-4.017 8.195-13.345 12.991-22.467 13.082-9.122.092-17.923-3.983-24.996-9.751-8.344-6.798-15.027-16.195-25.122-19.937-16.435-6.078-33.706 5.093-50.885 8.526-16.184 3.239-34.393-1.316-45.174-13.814-10.781-12.498-11.983-33.111-.778-45.22 6.054-6.535 15.279-10.747 18.163-19.182 3.582-10.472-4.43-20.887-10.415-30.192-4.967-7.714-8.87-16.435-9.099-25.614-.229-9.168 3.823-18.827 11.743-23.463 19.308-11.319 45.334 10.45 63.543-5.333 14.066-12.2 13.586-34.358 37.025-36.167l.012.012Z"/><path stroke-linecap="round" stroke-linejoin="round" stroke-width=".572" d="M179.711 75.747c14.409-1.11 28.67 10.38 30.639 24.699 1.018 7.416-.87 15.039.526 22.398 1.969 10.323 10.049 18.358 18.495 24.607 8.447 6.249 17.809 11.594 24.459 19.731 6.649 8.138 9.934 20.281 4.372 29.197-5.38 8.629-17.145 11.628-22.433 20.315-8.595 14.123 4.716 33.694-2.575 48.538-3.674 7.497-12.212 11.892-20.567 11.972-8.355.08-16.401-3.639-22.867-8.916-7.634-6.226-13.757-14.821-22.993-18.243-15.039-5.563-30.845 4.658-46.559 7.805-14.81 2.965-31.474-1.201-41.34-12.635-9.866-11.434-10.964-30.307-.71-41.386 5.54-5.985 13.975-9.831 16.619-17.556 3.273-9.58-4.052-19.114-9.523-27.629-4.543-7.062-8.126-15.039-8.32-23.44-.206-8.389 3.502-17.224 10.747-21.471 17.671-10.357 41.488 9.569 58.141-4.887 12.864-11.159 12.429-31.44 33.889-33.099Z"/><path stroke-linecap="round" stroke-linejoin="round" stroke-width=".538" d="M178.441 85.086c13.07-1.007 26.003 9.42 27.8 22.41.927 6.718-.79 13.642.481 20.315 1.785 9.362 9.11 16.653 16.778 22.329 7.669 5.677 16.161 10.518 22.192 17.901 6.032 7.382 9.008 18.392 3.96 26.484-4.887 7.828-15.553 10.552-20.349 18.438-7.794 12.818 4.281 30.57-2.335 44.029-3.342 6.798-11.079 10.781-18.655 10.861-7.577.069-14.879-3.307-20.75-8.091-6.925-5.654-12.475-13.448-20.865-16.55-13.642-5.047-27.983 4.235-42.244 7.085-13.436 2.689-28.555-1.088-37.505-11.468-8.95-10.381-9.958-27.492-.641-37.54 5.024-5.425 12.68-8.928 15.073-15.921 2.976-8.686-3.674-17.339-8.641-25.064-4.12-6.41-7.37-13.643-7.554-21.265-.183-7.611 3.182-15.623 9.751-19.48 16.024-9.396 37.632 8.675 52.751-4.429 11.674-10.129 11.273-28.521 30.742-30.02l.011-.024Z"/><path stroke-linecap="round" stroke-linejoin="round" stroke-width=".504" d="M177.17 94.426c11.743-.904 23.348 8.458 24.962 20.12.836 6.032-.709 12.246.435 18.232 1.602 8.412 8.183 14.948 15.062 20.041 6.878 5.093 14.512 9.442 19.926 16.069 5.413 6.626 8.092 16.515 3.559 23.771-4.383 7.027-13.963 9.477-18.266 16.55-6.993 11.502 3.834 27.445-2.095 39.531-2.998 6.1-9.945 9.683-16.744 9.751-6.798.069-13.356-2.964-18.632-7.267-6.215-5.07-11.205-12.075-18.725-14.856-12.246-4.532-25.122 3.8-37.917 6.352-12.063 2.415-25.637-.984-33.672-10.289-8.034-9.316-8.939-24.687-.572-33.706 4.51-4.876 11.388-8.012 13.539-14.295 2.667-7.805-3.296-15.565-7.759-22.501-3.697-5.757-6.616-12.246-6.787-19.09-.172-6.833 2.85-14.032 8.755-17.489 14.387-8.435 33.786 7.794 47.36-3.983 10.484-9.087 10.118-25.602 27.594-26.953l-.023.012Z"/><path stroke-linecap="round" stroke-linejoin="round" stroke-width=".469" d="M175.9 103.776c10.404-.801 20.693 7.496 22.112 17.82.733 5.345-.629 10.861.39 16.16 1.419 7.451 7.256 13.242 13.345 17.763 6.088 4.521 12.852 8.366 17.648 14.238 4.795 5.871 7.165 14.638 3.147 21.07-3.88 6.226-12.372 8.39-16.183 14.661-6.203 10.198 3.399 24.31-1.854 35.023-2.655 5.413-8.813 8.583-14.845 8.641-6.031.057-11.834-2.633-16.503-6.433-5.505-4.498-9.923-10.701-16.596-13.161-10.85-4.018-22.261 3.364-33.603 5.631-10.689 2.14-22.707-.87-29.826-9.122s-7.92-21.872-.515-29.861c3.995-4.314 10.083-7.095 11.995-12.669 2.369-6.913-2.919-13.792-6.879-19.938-3.273-5.093-5.86-10.85-6.008-16.916-.149-6.054 2.529-12.429 7.759-15.496 12.75-7.474 29.941 6.901 41.958-3.525 9.282-8.058 8.973-22.696 24.458-23.886Z"/><path stroke-linecap="round" stroke-linejoin="round" stroke-width=".435" d="M174.63 113.115c9.064-.698 18.026 6.524 19.273 15.531.641 4.658-.549 9.465.332 14.078 1.236 6.489 6.318 11.548 11.628 15.473 5.311 3.926 11.205 7.291 15.383 12.407 4.177 5.116 6.249 12.75 2.746 18.358-3.387 5.425-10.781 7.313-14.111 12.784-5.403 8.881 2.964 21.185-1.614 30.524-2.312 4.716-7.68 7.474-12.933 7.531-5.254.046-10.312-2.289-14.387-5.608-4.795-3.914-8.652-9.316-14.455-11.468-9.454-3.502-19.399 2.93-29.288 4.91-9.316 1.865-19.789-.755-25.992-7.943-6.203-7.188-6.901-19.056-.446-26.026 3.479-3.766 8.79-6.181 10.449-11.033 2.06-6.02-2.552-12.029-5.986-17.374-2.861-4.441-5.104-9.465-5.241-14.741-.126-5.276 2.197-10.827 6.752-13.506 11.113-6.512 26.095 6.021 36.567-3.067 8.092-7.016 7.817-19.777 21.311-20.818l.012-.012Z"/><path stroke-linecap="round" stroke-linejoin="round" stroke-width=".389" d="M173.347 122.454c7.726-.595 15.371 5.563 16.424 13.242.55 3.972-.469 8.069.286 12.006 1.053 5.54 5.391 9.843 9.912 13.197 4.532 3.353 9.545 6.214 13.116 10.575 3.559 4.36 5.322 10.873 2.346 15.657-2.884 4.624-9.19 6.237-12.029 10.895-4.601 7.577 2.53 18.061-1.385 26.027-1.968 4.017-6.546 6.375-11.021 6.42-4.475.046-8.79-1.957-12.258-4.784-4.097-3.342-7.371-7.943-12.326-9.774-8.058-2.987-16.538 2.495-24.962 4.189-7.943 1.591-16.87-.641-22.158-6.775-5.287-6.135-5.883-16.252-.378-22.192 2.976-3.205 7.497-5.277 8.905-9.408 1.751-5.139-2.175-10.255-5.105-14.81-2.438-3.789-4.349-8.069-4.463-12.567-.115-4.498 1.877-9.236 5.757-11.514 9.476-5.551 22.237 5.128 31.176-2.621 6.901-5.986 6.661-16.858 18.163-17.74v-.023Z"/></g><defs><clipPath id="a"><path fill="#fff" d="M0 .46h332v351.95H0z"/></clipPath></defs></svg>