<svg width="104" height="32" fill="none" xmlns="http://www.w3.org/2000/svg"><path d="M54.837 8.04c0 1.154-.929 2.082-2.082 2.082a2.077 2.077 0 0 1-2.082-2.082c0-1.153.897-2.081 2.082-2.081 1.186.032 2.082.96 2.082 2.081Zm-8.585 4.197v.512s-.992-1.281-3.106-1.281c-3.491 0-6.215 2.658-6.215 6.342 0 3.652 2.692 6.342 6.215 6.342 2.146 0 3.106-1.313 3.106-1.313v.544c0 .257.193.448.45.448h2.593V11.787h-2.594a.46.46 0 0 0-.449.45Zm0 7.72c-.48.704-1.44 1.313-2.594 1.313-2.05 0-3.62-1.282-3.62-3.46s1.57-3.46 3.62-3.46c1.122 0 2.146.641 2.594 1.314v4.292Zm4.965-8.17h3.075v12.045h-3.075V11.788Zm45.934-.32c-2.114 0-3.108 1.282-3.108 1.282V5.991H90.97v17.841h2.595a.458.458 0 0 0 .448-.448v-.545s.993 1.314 3.106 1.314c3.492 0 6.215-2.69 6.215-6.342 0-3.652-2.723-6.344-6.182-6.344Zm-.513 9.77c-1.185 0-2.114-.608-2.595-1.313v-4.292c.481-.64 1.506-1.314 2.595-1.314 2.05 0 3.62 1.282 3.62 3.46s-1.57 3.46-3.62 3.46Zm-7.27-4.548v7.175h-3.076v-6.823c0-1.985-.64-2.787-2.37-2.787-.928 0-1.89.481-2.499 1.186v8.393H78.35V11.787h2.434c.256 0 .448.225.448.449v.512c.897-.929 2.082-1.281 3.267-1.281 1.346 0 2.467.385 3.364 1.153 1.089.897 1.506 2.05 1.506 4.068Zm-18.483-5.222c-2.114 0-3.107 1.282-3.107 1.282V5.991h-3.075v17.841h2.594a.458.458 0 0 0 .449-.448v-.545s.993 1.314 3.107 1.314c3.491 0 6.214-2.69 6.214-6.342.032-3.652-2.69-6.344-6.182-6.344Zm-.513 9.77c-1.185 0-2.114-.608-2.594-1.313v-4.292c.48-.64 1.505-1.314 2.594-1.314 2.05 0 3.62 1.282 3.62 3.46s-1.57 3.46-3.62 3.46Zm-8.328-9.77c.929 0 1.41.16 1.41.16v2.851s-2.563-.864-4.164.962v8.424h-3.076V11.788h2.595c.256 0 .448.224.448.449v.512c.577-.673 1.827-1.282 2.787-1.282ZM30.11 22.743c-.16-.384-.32-.8-.48-1.153-.257-.577-.513-1.122-.737-1.634l-.032-.032a333.965 333.965 0 0 0-7.079-14.478l-.096-.192c-.263-.499-.519-1-.768-1.506-.32-.577-.64-1.185-1.154-1.762C18.738.705 17.265 0 15.696 0c-1.602 0-3.043.705-4.1 1.922-.48.576-.833 1.185-1.153 1.762-.25.505-.506 1.007-.769 1.505l-.096.193c-2.466 4.804-4.869 9.673-7.079 14.478l-.032.063c-.224.514-.48 1.058-.737 1.634-.16.353-.32.737-.48 1.153-.417 1.185-.545 2.306-.384 3.46a6.808 6.808 0 0 0 4.164 5.317A6.575 6.575 0 0 0 7.624 32a8.461 8.461 0 0 0 4.036-1.153c1.314-.737 2.563-1.794 3.972-3.331 1.41 1.538 2.69 2.594 3.972 3.331a8.464 8.464 0 0 0 3.203 1.089c.257.032.577.064.834.064.896 0 1.793-.16 2.594-.513 2.242-.897 3.811-2.946 4.164-5.317.255-1.12.127-2.242-.29-3.427Zm-14.446 1.666c-1.73-2.179-2.85-4.229-3.235-5.958-.16-.737-.192-1.377-.096-1.954.064-.513.256-.961.513-1.346.608-.864 1.633-1.409 2.819-1.409 1.185 0 2.242.513 2.819 1.41.256.384.448.833.513 1.345.096.577.064 1.25-.096 1.954-.386 1.697-1.507 3.748-3.237 5.957Zm12.78 1.505a4.76 4.76 0 0 1-2.914 3.748 4.851 4.851 0 0 1-2.434.32c-.801-.096-1.602-.352-2.435-.832-1.153-.642-2.306-1.634-3.651-3.108 2.113-2.594 3.395-4.965 3.875-7.079.225-.993.257-1.89.16-2.723a5.193 5.193 0 0 0-.864-2.178c-.994-1.442-2.66-2.274-4.517-2.274-1.857 0-3.523.865-4.516 2.274a5.199 5.199 0 0 0-.865 2.178 6.654 6.654 0 0 0 .16 2.724c.48 2.113 1.794 4.516 3.876 7.11-1.314 1.474-2.499 2.467-3.652 3.107-.833.481-1.634.737-2.434.833a5.125 5.125 0 0 1-2.435-.32 4.76 4.76 0 0 1-2.914-3.748 5.3 5.3 0 0 1 .288-2.498c.096-.32.256-.64.416-1.025.225-.513.48-1.058.737-1.602l.032-.064c2.21-4.773 4.58-9.641 7.047-14.382l.096-.192c.257-.48.513-.993.769-1.474.256-.512.544-.993.897-1.41.673-.768 1.57-1.184 2.562-1.184.994 0 1.89.416 2.563 1.184.352.418.64.899.897 1.41.256.481.513.994.768 1.474l.097.192a424.02 424.02 0 0 1 7.015 14.414v.032c.256.514.48 1.09.737 1.603.16.384.32.704.416 1.024.256.832.352 1.633.223 2.466Z" fill="#191825" fill-opacity=".5"/></svg>