<svg width="189" height="32" fill="none" xmlns="http://www.w3.org/2000/svg"><mask id="a" style="mask-type:luminance" maskUnits="userSpaceOnUse" x="0" y="0" width="189" height="32"><path d="M188.696 0H.093v32h188.603V0Z" fill="#fff"/></mask><g mask="url(#a)"><mask id="b" style="mask-type:luminance" maskUnits="userSpaceOnUse" x="0" y="0" width="189" height="32"><path d="M188.696 0H.093v32h188.603V0Z" fill="#fff"/></mask><g mask="url(#b)"><path d="M74.05 3.503a2.87 2.87 0 0 1 5.739 0 2.87 2.87 0 0 1-2.973 2.76 2.875 2.875 0 0 1-2.766-2.76Z" fill="#191825" fill-opacity=".5"/></g><mask id="c" style="mask-type:luminance" maskUnits="userSpaceOnUse" x="0" y="0" width="189" height="32"><path d="M188.696 0H.093v32h188.603V0Z" fill="#fff"/></mask><g mask="url(#c)"><path d="M119.274 22.618a2.867 2.867 0 0 1 2.858-2.877 2.873 2.873 0 0 1 2.874 2.877 2.873 2.873 0 0 1-2.874 2.873 2.87 2.87 0 0 1-2.858-2.873Z" fill="#191825" fill-opacity=".5"/></g><mask id="d" style="mask-type:luminance" maskUnits="userSpaceOnUse" x="0" y="0" width="189" height="32"><path d="M188.696 0H.093v32h188.603V0Z" fill="#fff"/></mask><g mask="url(#d)"><path d="M27.02 21.376c-2.464 0-4.184-1.96-4.184-4.763 0-2.8 1.716-4.759 4.184-4.759 2.48 0 4.218 1.96 4.218 4.76-.003 2.847-1.698 4.762-4.218 4.762Zm0-13.707c-5.22 0-9.01 3.761-9.01 8.944 0 5.183 3.794 8.944 9.01 8.944 5.246 0 9.048-3.76 9.048-8.94 0-5.187-3.81-8.948-9.047-8.948Zm41.482 9.394a4.316 4.316 0 0 0-.681-.965l-.159-.166.166-.159c.24-.254.486-.552.718-.898l4.609-6.852h-5.596l-3.462 5.36c-.196.29-.59.427-1.183.427h-.792V3.676c0-2.026-1.26-2.298-2.626-2.298H57.16l.004 23.914h4.954v-7.168h.465c.563 0 .946.066 1.127.372l2.733 5.16c.766 1.4 1.525 1.64 2.954 1.64h3.81l-2.833-4.675-1.872-3.558Zm24.07-9.43c-2.524 0-4.134 1.12-5.033 2.07l-.298.306-.107-.413c-.265-1.017-1.156-1.57-2.501-1.57h-2.221l.014 17.27h4.926v-7.957c0-.78.099-1.451.305-2.07.55-1.864 2.078-3.028 3.986-3.028 1.536 0 2.14.81 2.14 2.91v7.522c0 1.787.825 2.626 2.62 2.626h2.338l-.01-10.984c0-4.38-2.133-6.682-6.16-6.682Zm-15.59.39h-2.335l.014 13.353v3.916h2.49l.089.004 1.164-.004h1.153v-.004h.011l.011-14.639c-.007-1.768-.85-2.626-2.597-2.626ZM46.356 21.376c-2.464 0-4.185-1.96-4.185-4.763 0-2.8 1.72-4.759 4.185-4.759 2.475 0 4.218 1.96 4.218 4.76-.004 2.847-1.698 4.762-4.218 4.762Zm0-13.707c-5.223 0-9.018 3.761-9.018 8.944 0 5.183 3.795 8.944 9.018 8.944 5.234 0 9.047-3.76 9.047-8.94 0-5.187-3.809-8.948-9.047-8.948Z" fill="#191825" fill-opacity=".5"/></g></g><mask id="e" style="mask-type:luminance" maskUnits="userSpaceOnUse" x="0" y="0" width="189" height="32"><path d="M188.696 0H.093v32h188.603V0Z" fill="#fff"/></mask><g mask="url(#e)"><mask id="f" style="mask-type:luminance" maskUnits="userSpaceOnUse" x="0" y="0" width="189" height="32"><path d="M188.656.63H.093v31.33h188.563V.63Z" fill="#fff"/></mask><g mask="url(#f)"><mask id="g" style="mask-type:luminance" maskUnits="userSpaceOnUse" x="0" y="0" width="189" height="32"><path d="M188.696 0H.093v32h188.603V0Z" fill="#fff"/></mask><g mask="url(#g)"><path d="M151.885 21.376c-2.464 0-4.184-1.96-4.184-4.763 0-2.8 1.72-4.759 4.184-4.759 2.479 0 4.218 1.96 4.218 4.76 0 2.847-1.698 4.762-4.218 4.762Zm0-13.707c-5.223 0-9.017 3.761-9.017 8.944 0 5.183 3.786 8.944 9.017 8.944 5.238 0 9.047-3.76 9.047-8.94 0-5.187-3.812-8.948-9.047-8.948Z" fill="#191825" fill-opacity=".5"/></g><mask id="h" style="mask-type:luminance" maskUnits="userSpaceOnUse" x="0" y="0" width="189" height="32"><path d="M188.696 0H.093v32h188.603V0Z" fill="#fff"/></mask><g mask="url(#h)"><path d="M109.107 20.61c-2.693 0-3.647-2.346-3.647-4.546 0-.972.247-4.129 3.397-4.129 1.561 0 3.643.45 3.643 4.288-.004 3.628-1.849 4.387-3.393 4.387Zm5.946-12.631c-.936 0-1.654.372-2.015 1.053l-.133.266-.228-.203c-.796-.689-2.222-1.503-4.531-1.503-4.605 0-7.703 3.455-7.703 8.605 0 5.143 3.209 8.734 7.798 8.734 1.566 0 2.807-.368 3.787-1.112l.376-.284v.479c0 2.31-1.492 3.58-4.196 3.58-1.318 0-2.512-.32-3.311-.611-1.043-.317-1.658-.052-2.078.99l-.394.966-.553 1.41.343.181c1.731.921 3.986 1.466 6.019 1.466 4.192 0 9.088-2.144 9.088-8.185l.014-15.843h-2.283" fill="#191825" fill-opacity=".5"/></g></g></g><mask id="i" style="mask-type:luminance" maskUnits="userSpaceOnUse" x="0" y="0" width="189" height="32"><path d="M188.696 0H.093v32h188.603V0Z" fill="#fff"/></mask><g mask="url(#i)"><mask id="j" style="mask-type:luminance" maskUnits="userSpaceOnUse" x="0" y="0" width="189" height="32"><path d="M188.696 0H.093v32h188.603V0Z" fill="#fff"/></mask><g mask="url(#j)"><path d="m8.687 21.174-4.012-.004v-4.789c0-1.027.398-1.554 1.271-1.68H8.68c1.95 0 3.209 1.23 3.216 3.22 0 2.044-1.23 3.253-3.208 3.253ZM4.675 8.25v-1.26c0-1.105.464-1.628 1.492-1.694H8.22c1.757 0 2.81 1.054 2.81 2.814 0 1.345-.721 2.91-2.747 2.91H4.675v-2.77Zm9.125 4.782-.722-.41.63-.54c.74-.63 1.967-2.056 1.967-4.513 0-3.761-2.914-6.185-7.427-6.185H2.517a2.516 2.516 0 0 0-2.424 2.48V25.2h8.262c5.017 0 8.252-2.73 8.252-6.959 0-2.269-1.05-4.217-2.807-5.208Z" fill="#191825" fill-opacity=".5"/></g><mask id="k" style="mask-type:luminance" maskUnits="userSpaceOnUse" x="0" y="0" width="189" height="32"><path d="M188.696 0H.093v32h188.603V0Z" fill="#fff"/></mask><g mask="url(#k)"><path d="M182.924 7.688a6.778 6.778 0 0 0-5.286 2.564l-.357.45-.28-.506c-.914-1.665-2.479-2.505-4.667-2.505-2.288 0-3.824 1.275-4.539 2.038l-.464.504-.18-.667c-.258-.957-1.113-1.484-2.402-1.484h-2.07l-.022 17.203h4.7v-7.596c0-.667.081-1.323.247-2.011.449-1.835 1.683-3.81 3.757-3.614 1.275.125 1.901 1.113 1.901 3.017v10.2h4.733v-7.596c0-.832.078-1.458.266-2.077.375-1.754 1.668-3.551 3.669-3.551 1.447 0 1.985.817 1.985 3.024v7.684c0 1.735.774 2.516 2.512 2.516h2.21l.004-10.981c.015-4.39-1.919-6.612-5.717-6.612ZM140.146 19.31c-.015.015-2.037 2.151-4.701 2.151-2.427 0-4.877-1.488-4.877-4.81 0-2.87 1.901-4.878 4.623-4.878.884 0 1.886.317 2.045.847l.022.089a1.726 1.726 0 0 0 1.672 1.27l2.575.004V11.73c0-2.973-3.776-4.045-6.321-4.045-5.437 0-9.379 3.783-9.379 8.996 0 5.208 3.901 8.992 9.279 8.992 4.668 0 7.202-3.069 7.228-3.095l.132-.166-2.04-3.385-.258.284Z" fill="#191825" fill-opacity=".5"/></g></g></svg>