<svg width="114" height="32" fill="none" xmlns="http://www.w3.org/2000/svg"><path d="M55.27 25.037h-3.514c-.023 0-.023 0-.034-.011l-3.025-3.693-3.026 3.693c-.011.01-.022.01-.033.01h-2.814c-.023 0-.034-.01-.045-.021 0-.012 0-.034.011-.045l4.46-5.473-4.404-5.417c-.011-.022-.011-.033-.011-.055.01-.011.022-.023.033-.023h3.515c.011 0 .022.011.033.023l2.659 3.292 2.703-3.292c.011-.011.022-.023.033-.023h2.859c.011 0 .033.011.044.023.011.022 0 .033-.01.055l-4.172 5.017 4.783 5.873c.011.011.011.033.011.045-.022.022-.033.022-.055.022ZM74.28 15.938c-1.557 0-2.614.945-2.925 2.58h5.295v-.11c0-1.302-.968-2.47-2.37-2.47Zm5.095 4.271c-.011.011-.022.023-.033.023h-8.043c.167 1.868 1.38 2.936 3.349 2.936 1.212 0 2.502-.412 4.315-1.38.034-.021.067.012.067.045v2.47c0 .022-.011.033-.022.033-1.69.712-3.393 1.201-4.727 1.201-3.46 0-5.974-2.525-5.974-5.995s2.514-5.996 5.974-5.996c3.158 0 5.183 2.125 5.183 5.05 0 .479-.078 1.58-.089 1.613ZM95.704 11.711c-.99 0-1.79-.79-1.79-1.757 0-1.002.8-1.814 1.79-1.814s1.79.812 1.79 1.814c0 .967-.8 1.757-1.79 1.757Zm-1.446 13.326c-.033 0-.045-.011-.045-.045V14.036c0-.022.012-.045.034-.045h2.903c.022 0 .033.023.033.045v10.956c0 .034-.022.045-.044.045h-2.881ZM60.587 23.39c-.522 0-1.056-.077-1.68-.233l.012-7.03c.723-.234 1.346-.334 1.969-.334 2.013 0 3.359 1.48 3.359 3.693 0 2.37-1.435 3.904-3.66 3.904Zm.79-9.844c-.823 0-1.646.145-2.514.445h-2.892a.048.048 0 0 0-.044.045V32a6.81 6.81 0 0 0 2.98-1.168V25.37c.713.1 1.302.167 1.87.167 3.96 0 6.518-2.369 6.518-6.04 0-3.504-2.436-5.95-5.918-5.95ZM88.974 22.478c-.9.479-1.713.701-2.47.701-1.79 0-2.869-1.268-2.869-3.392 0-2.448 1.368-4.038 3.493-4.038.59 0 1.157.144 1.846.456v6.273Zm0-14.282v5.729c-.845-.245-1.59-.356-2.347-.356-3.448 0-6.04 2.591-6.04 6.04 0 3.426 2.292 5.917 5.45 5.917 1.09 0 2.114-.278 3.316-.89v.99a6.61 6.61 0 0 0 2.602-1.112V7.017a6.579 6.579 0 0 0-2.98 1.179ZM107.25 22.456c-.879.5-1.624.745-2.291.745-1.925 0-3.07-1.268-3.07-3.392 0-2.414 1.357-4.038 3.37-4.038.534 0 1.19.211 1.991.634v6.051Zm2.981-8.598a.124.124 0 0 0-.122-.123h-2.347c-.067 0-.134.056-.134.123v.4h-.055c-1.079-.478-2.014-.69-2.915-.69-3.248 0-5.795 2.693-5.795 6.14 0 3.482 2.28 5.818 5.673 5.818.901 0 2.069-.067 3.159-1.312v1.412a6.73 6.73 0 0 0 2.536-1.112V13.858ZM34.792 22.3h7.286a6.7 6.7 0 0 1-1.012 2.737h-7.575c-.923 0-1.69-.723-1.78-1.624 0-.011-.01-.023-.01-.045V8.997c0-.011.01-.022.01-.033.09-.913.857-1.636 1.78-1.636h8.576a6.657 6.657 0 0 1-1.023 2.759h-6.252v3.915h6.196c.022 0 .045.023.045.045v2.714a.048.048 0 0 1-.045.044h-6.196V22.3ZM25.672 25.27c-.724 0-1.168-.567-1.168-1.257 0-.734.511-1.257 1.168-1.257.645 0 1.156.512 1.156 1.257 0 .746-.511 1.257-1.156 1.257Zm0-2.647c-.735 0-1.369.556-1.369 1.39 0 .79.568 1.39 1.369 1.39.723 0 1.357-.555 1.357-1.39 0-.834-.623-1.39-1.357-1.39Z" fill="#191825" fill-opacity=".5"/><path d="M25.349 23.902v-.512h.344c.178 0 .379.023.379.234 0 .256-.19.267-.4.267-.012.011-.323.011-.323.011Zm.967-.245c0-.333-.2-.478-.6-.478h-.623v1.646h.267v-.7h.256l.422.7h.312l-.456-.723c.244-.022.422-.144.422-.445ZM112.634 15.816c-.723 0-1.168-.568-1.168-1.257 0-.735.511-1.257 1.168-1.257.645 0 1.156.511 1.156 1.257 0 .745-.511 1.257-1.156 1.257Zm0-2.637c-.735 0-1.369.556-1.369 1.39 0 .79.568 1.391 1.369 1.391.723 0 1.357-.556 1.357-1.39 0-.846-.634-1.39-1.357-1.39Z" fill="#191825" fill-opacity=".5"/><path d="M112.3 14.447v-.5h.345c.178 0 .378.022.378.233 0 .256-.189.267-.4.267h-.323Zm.979-.233c0-.334-.2-.479-.601-.479h-.623v1.647h.267v-.701h.256l.423.7h.311l-.456-.722c.234-.023.423-.145.423-.445ZM16.272 10.076l-.523-1.49-4.494-5.996.801-.2 7.731 6.685 4.55-1.302c.533-.133 1.145-.167 1.601-.167a13.055 13.055 0 0 0-7.497-6.84C11.623-1.67 4.114 1.9 1.69 8.73a13.059 13.059 0 0 0-.611 6.362l10.89-3.781 4.304-1.235ZM26.428 8.786c-.4.255-.99.6-1.569.79l-4.56 1.3-3.037 9.767-.79.256.645-7.453-.355-1.546-4.272 1.224L1.19 15.76c.9 4.338 3.97 8.131 8.454 9.722 6.83 2.436 14.326-1.135 16.762-7.965a13.069 13.069 0 0 0 .023-8.731Z" fill="#191825" fill-opacity=".5"/><path d="m16.75 11.889.356 1.546-.645 7.453.79-.256 3.037-9.766 4.56-1.302c.579-.189 1.168-.523 1.569-.79-.145-.4-.3-.79-.479-1.179-.467 0-1.067.023-1.601.167l-4.55 1.302-7.73-6.685-.802.2 4.483 5.995.523 1.49-4.305 1.235-10.89 3.782c.034.223.078.456.123.679l11.29-2.659 4.271-1.212Z" fill="#fff"/></svg>