<svg width="174" height="32" fill="none" xmlns="http://www.w3.org/2000/svg"><path d="m100.241 31.141 13.304-30.108c.211-.457-.036-.85-.548-.85h-9.32a1.545 1.545 0 0 0-1.298.859l-13.14 30.1c-.191.465.055.849.558.849h9.147c.511 0 1.096-.384 1.297-.85Zm47.708-8.105L168.6.192h-24.151l-5.464 8.8h9.475L127.471 32h25.558l9.521-8.964h-14.601ZM59.569.183H43.58a2.695 2.695 0 0 0-2.257 1.49L28.739 30.51c-.365.822.083 1.489.978 1.489h7.922c.896 0 1.92-.667 2.267-1.48l3.59-8.178h3.72c1.16-.074 1.654.356 1.014 1.7l-2.76 6.469c-.347.822.092 1.489.987 1.489h7.922a2.687 2.687 0 0 0 2.267-1.49l3.6-8.324c1.133-2.704-.503-4.797-2.879-4.907 2.102-.758 4.04-2.85 4.907-4.751l1.864-4.386c2.248-5.1.65-8.023-4.568-7.95m-4.66 9.092-1.974 4.34c-.457 1.042-1.115 1.124-1.773 1.097h-4.45l2.979-6.762h4.267c1.042.064 1.307.439.95 1.325ZM90.691.174h-16.94a1.92 1.92 0 0 0-1.618 1.06L59.168 30.93c-.247.585.054 1.05.694 1.05H78c5.748-.082 9.046-1.352 11.669-7.437l1.864-4.057c1.462-3.473.027-4.98-2.714-5.419 2.284-.704 4.002-2.85 4.742-4.742l1.517-3.217c1.864-4.295.311-6.99-4.395-6.935m-8.306 19.92-1.151 2.311c-.576 1.609-1.581 2.047-2.997 2.066h-5.3l2.54-5.986h5.3c1.498.11 2.083.476 1.608 1.609ZM85.42 9.439l-.795 1.828-.119.237a1.827 1.827 0 0 1-1.864 1.225h-4.596l2.101-4.843h4.688c.84.055.978.603.585 1.553ZM116.479.183l-3.939 8.809h5.62c.384 0 .566.274.411.63l-9.823 21.747c-.164.348.028.631.411.631h10.006c.384 0 .822-.283.978-.64l9.43-21.738a1.15 1.15 0 0 1 .968-.64h5.766l5.428-8.8h-25.256ZM33.463 11.02l1.243-2.714c2.504-5.72.85-8.178-4.066-8.114H18.807C13.937.128 9.879 2.869 7.632 7.968L3.976 18.294H.522l6.607 8.918 10.92-8.918H15.27l3.207-7.448c.52-1.224 1.416-1.809 2.376-1.854h1.864c.438.018.74.155.913.347l5.794-4.87 4.039 6.551Z" fill="#191825" fill-opacity=".5"/><path d="m6.882 29.834-4.86-6.158-.257.548c-2.257 5.135-1.882 7.694 2.988 7.767h11.678c4.834-.073 9.065-2.632 11.33-7.767l3.473-7.959h3.107l-5.3-8.927-10.828 8.927h2.97l-2.193 5.071c-.53 1.079-1.334 1.664-2.193 1.7h-1.554l-8.36 6.798ZM172.446 0c.43 0 .795.155 1.097.457.302.302.457.667.457 1.097 0 .42-.155.785-.457 1.096-.302.31-.667.457-1.097.457a1.485 1.485 0 0 1-1.096-.457 1.526 1.526 0 0 1-.457-1.096c0-.42.155-.805.457-1.097A1.494 1.494 0 0 1 172.446 0Zm0 2.814a1.231 1.231 0 0 0 .905-.365 1.222 1.222 0 0 0 .366-.905 1.223 1.223 0 0 0-.366-.895 1.232 1.232 0 0 0-.905-.366 1.213 1.213 0 0 0-.895.366 1.22 1.22 0 0 0-.366.895c0 .348.119.658.366.905s.548.365.895.365Zm.795-.438h-.365l-.457-.658h-.192v.658h-.329V.704h.521c.183 0 .329.045.439.128.109.091.173.21.173.365 0 .201-.109.357-.32.439l.53.74Zm-1.005-.932h.174c.21 0 .311-.082.311-.238 0-.155-.092-.228-.302-.228h-.183v.466Z" fill="#191825" fill-opacity=".5"/></svg>