<svg width="212" height="32" fill="none" xmlns="http://www.w3.org/2000/svg"><path d="M22.801 19.227c1.822 4.935 7.312 7.462 12.25 5.644 4.933-1.83 7.465-7.315 5.637-12.252-1.824-4.942-7.306-7.465-12.25-5.643a9.538 9.538 0 0 0-5.637 12.25ZM10.608 25.422a9.535 9.535 0 1 0 0-19.07 9.535 9.535 0 0 0 0 19.07Z" fill="#fff"/><path d="M12.234 15.785c0 .972-.79 1.768-1.761 1.768a1.767 1.767 0 0 1-1.764-1.768c0-.97.788-1.756 1.764-1.756a1.76 1.76 0 0 1 1.76 1.756ZM33.483 15.785c0 .972-.787 1.768-1.759 1.768a1.765 1.765 0 0 1-1.763-1.768c0-.97.785-1.756 1.763-1.756a1.757 1.757 0 0 1 1.759 1.756Z" fill="#191825" fill-opacity=".5"/><path d="M5.234 15.785a5.244 5.244 0 0 0 5.242 5.238 5.241 5.241 0 0 0 5.233-5.238 5.242 5.242 0 0 0-5.233-5.232c-2.89.003-5.242 2.35-5.242 5.232Zm1.806 0a3.439 3.439 0 0 1 3.439-3.428 3.434 3.434 0 0 1 0 6.866 3.44 3.44 0 0 1-3.44-3.438ZM26.485 15.785a5.241 5.241 0 0 0 5.238 5.238 5.24 5.24 0 0 0 5.232-5.238 5.239 5.239 0 0 0-5.232-5.232c-2.888.003-5.238 2.35-5.238 5.232Zm1.806 0a3.436 3.436 0 0 1 3.436-3.428 3.433 3.433 0 0 1 0 6.866 3.435 3.435 0 0 1-3.436-3.438Z" fill="#191825" fill-opacity=".5"/><path d="M28.072 5.972a10.507 10.507 0 0 1 3.35-.635c-3.04-1.36-6.48-2.05-10.291-2.05-3.782 0-7.273.705-10.31 2.004 5.497.11 9.967 4.415 10.352 9.842.093-1.246.398-2.477.936-3.643a10.522 10.522 0 0 1 5.962-5.518Z" fill="#fff"/><path d="M40.27 9.623c.497-2.129 2.074-4.258 2.074-4.258l-7.079-.004c-3.97-2.563-8.79-3.923-14.132-3.923-5.544 0-10.55 1.392-14.497 3.973L0 5.417s1.559 2.106 2.063 4.218a10.511 10.511 0 0 0-2.057 6.253c0 5.845 4.757 10.6 10.605 10.6 3.343 0 6.324-1.557 8.268-3.978l2.258 3.38 2.276-3.41a10.598 10.598 0 0 0 3.892 3.075 10.557 10.557 0 0 0 8.115.319c5.487-2.03 8.304-8.145 6.275-13.625a10.482 10.482 0 0 0-1.425-2.626ZM21.132 3.289c3.811 0 7.251.69 10.29 2.05-1.117.03-2.245.23-3.35.633a10.515 10.515 0 0 0-5.959 5.513 10.585 10.585 0 0 0-.936 3.644c-.388-5.425-4.858-9.73-10.355-9.842 3.036-1.295 6.525-1.998 10.31-1.998Zm-3.514 17.336a8.465 8.465 0 0 1-7.01 3.725c-4.668 0-8.467-3.801-8.467-8.46 0-4.672 3.8-8.466 8.467-8.466 4.668 0 8.466 3.794 8.466 8.466 0 .285-.055.553-.084.829-.142 1.43-.602 2.77-1.372 3.906Zm17.06 3.242a8.408 8.408 0 0 1-9.987-3.3 8.351 8.351 0 0 1-.884-1.712c-.259-.697-.387-1.416-.457-2.14-.14-1.47.072-2.955.705-4.332a8.433 8.433 0 0 1 4.76-4.403c4.38-1.615 9.256.631 10.874 5.01 1.617 4.38-.63 9.256-5.01 10.877ZM54.852 2.987l-3.104 1.072v4.05h-3.44v2.715h3.347v8.72c0 4.142 1.41 5.843 4.88 5.843.88 0 1.72-.109 2.564-.34l.137-.033-.039-2.816-.237.09c-.682.236-1.216.352-1.628.352-1.63 0-2.234-.916-2.234-3.39v-8.421h3.97v-2.72h-3.97V2.906l-.246.08ZM65.585 10.86V8.109h-3.15v16.978h3.443v-8.522c0-3.573 1.501-5.542 4.221-5.542.394 0 .777.06 1.243.191l.223.064.113-3.351-1.481-.113C68.2 7.812 66.59 8.89 65.585 10.86ZM77.814 8.107h-3.259v16.98h3.443V8.107h-.184Zm-3.592-4.975a2.048 2.048 0 1 0 4.095-.003 2.048 2.048 0 0 0-4.095.003ZM90.157 7.71c-2.363 0-4.35 1.118-5.674 3.153V8.105h-3.148V32h3.446v-9.262c1.242 1.69 3.025 2.62 5.243 2.62 4.352 0 7.164-3.572 7.164-9.087 0-5.12-2.827-8.562-7.031-8.562Zm-.962 14.862c-2.724 0-4.416-2.328-4.416-6.07 0-3.61 1.785-5.943 4.547-5.943 2.662 0 4.254 2.211 4.254 5.908.001 3.764-1.68 6.105-4.385 6.105ZM107.251 7.71c-2.106 0-3.95.397-5.642 1.21l-.104.052.036 2.938.272-.152c1.617-.904 3.147-1.366 4.541-1.366 2.494 0 3.926 1.43 3.926 3.928v.145h-1.97c-5.668 0-8.787 2.053-8.787 5.776 0 2.99 2.251 5.08 5.474 5.08 2.371 0 4.206-.933 5.513-2.687v2.452h3.111V14.811c-.001-4.71-2.143-7.102-6.37-7.102Zm3.023 10.21c0 2.924-1.759 4.816-4.482 4.816-1.668 0-2.831-1.096-2.831-2.663 0-2.06 1.97-3.192 5.545-3.192h1.771c-.003.264-.003 1.038-.003 1.038ZM128.243 0v10.412c-1.27-1.765-3.037-2.7-5.306-2.7-4.212 0-7.042 3.468-7.042 8.623 0 5.31 2.87 9.018 6.973 9.018 2.43 0 4.325-1.076 5.639-3.168v2.904h3.183V0h-3.447Zm-4.483 22.503c-2.623 0-4.253-2.288-4.253-5.97 0-3.688 1.644-6.072 4.191-6.072 2.844 0 4.542 2.268 4.542 6.071.003 3.634-1.751 5.971-4.48 5.971ZM147.075 8.107l-4.882 9.805-4.514-9.805H133.8l8.321 16.98 8.546-16.98h-3.592ZM155.679 8.107h-3.26v16.98h3.447V8.107h-.187Zm-3.59-4.975c0 1.13.92 2.046 2.048 2.046a2.045 2.045 0 0 0 2.048-2.046 2.05 2.05 0 0 0-2.048-2.049 2.051 2.051 0 0 0-2.048 2.05ZM159.902 12.461c0 2.388 1.641 3.646 4.672 5.13 1.91.938 2.909 1.492 2.909 2.815 0 1.357-1.226 2.234-3.13 2.234-1.345 0-2.839-.378-4.319-1.106l-.252-.124-.111 2.994.114.042c1.415.564 2.902.84 4.439.84 4.211 0 6.929-2.008 6.929-5.113 0-2.588-1.721-3.903-4.705-5.296-2.185-1.026-3.101-1.624-3.101-2.713 0-1.03 1.019-1.703 2.595-1.703 1.424 0 2.813.317 4.128.944l.248.114.15-2.929-.137-.04c-1.426-.423-2.834-.636-4.19-.636-3.731-.006-6.239 1.824-6.239 4.547ZM181.896 7.71c-5.174 0-8.387 3.407-8.387 8.886 0 5.482 3.216 8.884 8.387 8.884 5.199 0 8.425-3.403 8.425-8.884 0-5.478-3.229-8.887-8.425-8.887Zm.03 14.961c-2.86 0-4.78-2.454-4.78-6.107 0-3.674 1.92-6.136 4.78-6.136 2.906 0 4.783 2.41 4.783 6.136 0 3.71-1.874 6.107-4.783 6.107ZM196.673 10.86V8.109h-3.149v16.978h3.443v-8.522c0-3.573 1.492-5.542 4.216-5.542.392 0 .772.06 1.229.191l.233.064.107-3.351-1.475-.113c-1.987-.002-3.596 1.076-4.604 3.046ZM210.965 7.356c.565.572.862 1.332.862 2.15 0 .854-.319 1.62-.907 2.183-.613.581-1.372.893-2.166.893a2.996 2.996 0 0 1-2.185-.939c-.566-.587-.887-1.338-.887-2.14 0-.818.327-1.61.937-2.212a2.989 2.989 0 0 1 2.135-.866 3.035 3.035 0 0 1 2.211.931ZM207 7.694a2.543 2.543 0 0 0-.763 1.811c0 .658.246 1.264.721 1.747a2.442 2.442 0 0 0 1.783.766 2.54 2.54 0 0 0 1.779-.728 2.444 2.444 0 0 0 .745-1.786c0-.676-.246-1.29-.712-1.761a2.47 2.47 0 0 0-1.799-.758 2.44 2.44 0 0 0-1.754.709Zm1.81.057c.963 0 1.458.35 1.458.98 0 .435-.259.773-.718.911l.757 1.482h-1.025l-.631-1.338h-.267v1.338h-.929V7.75l1.355.001Zm-.433 1.486h.323c.414 0 .613-.145.613-.435 0-.33-.209-.466-.662-.466h-.274v.901Z" fill="#191825" fill-opacity=".5"/></svg>