<svg xmlns="http://www.w3.org/2000/svg" width="65" height="171" fill="none"><g fill="#FF5722" clip-path="url(#a)"><path d="M44.025 170.703H65l-10.487-10.487-10.488 10.487ZM44.025 135.164H65l-10.487-10.487-10.488 10.487ZM44.025 99.61H65L54.513 89.125 44.025 99.61ZM44.025 64.072H65L54.513 53.585 44.025 64.072ZM44.025 28.534H65L54.513 18.03 44.025 28.534ZM0 153.426h20.975l-10.487-10.487L0 153.426ZM0 117.873h20.975l-10.488-10.488L0 117.873ZM0 82.334h20.975L10.487 71.847 0 82.334ZM0 46.795h20.975L10.487 36.308 0 46.795ZM0 11.242h20.975L10.487.754 0 11.242Z"/></g><defs><clipPath id="a"><path fill="#fff" d="M65 170.703H0V.754h65z"/></clipPath></defs></svg>