<svg width="126" height="172" fill="none" xmlns="http://www.w3.org/2000/svg"><g filter="url(#a)"><rect x="31" width="64" height="64" rx="32" fill="#F85E9F"/><path d="M75.58 19.443a2.578 2.578 0 0 0-2.574-.672l-21.462 6.242c-.971.27-1.66 1.044-1.845 2.028-.19 1.001.473 2.272 1.337 2.803l6.71 4.125a1.739 1.739 0 0 0 2.147-.258l7.684-7.732a.979.979 0 0 1 1.414 0c.387.39.387 1.02 0 1.423l-7.698 7.733a1.765 1.765 0 0 0-.257 2.159l4.1 6.778a2.547 2.547 0 0 0 2.215 1.261c.106 0 .226 0 .333-.013a2.6 2.6 0 0 0 2.174-1.852l6.363-21.435a2.62 2.62 0 0 0-.64-2.59Z" fill="#fff"/></g><defs><filter id="a" x="0" y="0" width="126" height="172" filterUnits="userSpaceOnUse" color-interpolation-filters="sRGB"><feFlood flood-opacity="0" result="BackgroundImageFix"/><feColorMatrix in="SourceAlpha" values="0 0 0 0 0 0 0 0 0 0 0 0 0 0 0 0 0 0 127 0" result="hardAlpha"/><feOffset dy="19"/><feGaussianBlur stdDeviation="9.5"/><feColorMatrix values="0 0 0 0 0 0 0 0 0 0 0 0 0 0 0 0 0 0 0.09 0"/><feBlend in2="BackgroundImageFix" result="effect1_dropShadow_832_866"/><feColorMatrix in="SourceAlpha" values="0 0 0 0 0 0 0 0 0 0 0 0 0 0 0 0 0 0 127 0" result="hardAlpha"/><feOffset dy="43"/><feGaussianBlur stdDeviation="13"/><feColorMatrix values="0 0 0 0 0 0 0 0 0 0 0 0 0 0 0 0 0 0 0.05 0"/><feBlend in2="effect1_dropShadow_832_866" result="effect2_dropShadow_832_866"/><feColorMatrix in="SourceAlpha" values="0 0 0 0 0 0 0 0 0 0 0 0 0 0 0 0 0 0 127 0" result="hardAlpha"/><feOffset dy="77"/><feGaussianBlur stdDeviation="15.5"/><feColorMatrix values="0 0 0 0 0 0 0 0 0 0 0 0 0 0 0 0 0 0 0.01 0"/><feBlend in2="effect2_dropShadow_832_866" result="effect3_dropShadow_832_866"/><feBlend in="SourceGraphic" in2="effect3_dropShadow_832_866" result="shape"/></filter></defs></svg>