<svg width="126" height="172" fill="none" xmlns="http://www.w3.org/2000/svg"><g filter="url(#a)"><rect x="31" width="64" height="64" rx="32" fill="#FF5722"/><path fill-rule="evenodd" clip-rule="evenodd" d="M59.667 32.738c3.672 0 6.617-2.982 6.617-6.702 0-3.72-2.945-6.703-6.617-6.703-3.673 0-6.617 2.983-6.617 6.703s2.944 6.702 6.617 6.702Zm0 3.282c-5.395 0-10 .863-10 4.308s4.577 4.339 10 4.339c5.393 0 10-.863 10-4.309 0-3.445-4.578-4.338-10-4.338Zm13.864-7.236h1.604c.66 0 1.198.546 1.198 1.215a1.21 1.21 0 0 1-1.198 1.216H73.53v1.57c0 .67-.537 1.215-1.199 1.215a1.21 1.21 0 0 1-1.199-1.215v-1.57h-1.6a1.208 1.208 0 0 1-1.2-1.216c0-.67.537-1.215 1.2-1.215h1.6v-1.569c0-.67.539-1.215 1.2-1.215.66 0 1.198.546 1.198 1.215v1.569Z" fill="#fff"/></g><defs><filter id="a" x="0" y="0" width="126" height="172" filterUnits="userSpaceOnUse" color-interpolation-filters="sRGB"><feFlood flood-opacity="0" result="BackgroundImageFix"/><feColorMatrix in="SourceAlpha" values="0 0 0 0 0 0 0 0 0 0 0 0 0 0 0 0 0 0 127 0" result="hardAlpha"/><feOffset dy="19"/><feGaussianBlur stdDeviation="9.5"/><feColorMatrix values="0 0 0 0 0 0 0 0 0 0 0 0 0 0 0 0 0 0 0.09 0"/><feBlend in2="BackgroundImageFix" result="effect1_dropShadow_832_869"/><feColorMatrix in="SourceAlpha" values="0 0 0 0 0 0 0 0 0 0 0 0 0 0 0 0 0 0 127 0" result="hardAlpha"/><feOffset dy="43"/><feGaussianBlur stdDeviation="13"/><feColorMatrix values="0 0 0 0 0 0 0 0 0 0 0 0 0 0 0 0 0 0 0.05 0"/><feBlend in2="effect1_dropShadow_832_869" result="effect2_dropShadow_832_869"/><feColorMatrix in="SourceAlpha" values="0 0 0 0 0 0 0 0 0 0 0 0 0 0 0 0 0 0 127 0" result="hardAlpha"/><feOffset dy="77"/><feGaussianBlur stdDeviation="15.5"/><feColorMatrix values="0 0 0 0 0 0 0 0 0 0 0 0 0 0 0 0 0 0 0.01 0"/><feBlend in2="effect2_dropShadow_832_869" result="effect3_dropShadow_832_869"/><feBlend in="SourceGraphic" in2="effect3_dropShadow_832_869" result="shape"/></filter></defs></svg>