<svg width="277" height="353" fill="none" xmlns="http://www.w3.org/2000/svg"><g filter="url(#a)"><rect x="83" y="19" width="112" height="112" rx="56" fill="#FACD49"/><path fill-rule="evenodd" clip-rule="evenodd" d="M154.522 75.002c0 1.627 1.336 2.95 2.978 2.95.828 0 1.5.667 1.5 1.487v5.353c0 4.526-3.716 8.208-8.284 8.208h-23.43c-4.568 0-8.286-3.682-8.286-8.208v-5.353c0-.82.672-1.486 1.5-1.486 1.644 0 2.98-1.324 2.98-2.951 0-1.585-1.282-2.778-2.98-2.778-.398 0-.778-.157-1.06-.436a1.48 1.48 0 0 1-.44-1.05l.004-5.528c0-4.526 3.716-8.21 8.284-8.21h23.424c4.568 0 8.286 3.684 8.286 8.21l.002 5.355c0 .392-.158.773-.438 1.05-.282.28-.662.436-1.062.436-1.642 0-2.978 1.324-2.978 2.951Zm-11.018 1.294 2.358-2.275a1.44 1.44 0 0 0 .374-1.506 1.46 1.46 0 0 0-1.192-.993l-3.258-.472-1.458-2.925a1.474 1.474 0 0 0-1.324-.818H139c-.564 0-1.072.313-1.326.816l-1.458 2.927-3.252.47a1.47 1.47 0 0 0-1.2.995 1.448 1.448 0 0 0 .374 1.506l2.358 2.275-.556 3.216c-.096.555.13 1.106.59 1.437.26.184.562.28.868.28.234 0 .47-.058.686-.17L139 79.54l2.91 1.514a1.467 1.467 0 0 0 1.56-.107c.462-.329.688-.88.592-1.435l-.558-3.216Z" fill="#fff"/></g><defs><filter id="a" x="0" y="0" width="278" height="353" filterUnits="userSpaceOnUse" color-interpolation-filters="sRGB"><feFlood flood-opacity="0" result="BackgroundImageFix"/><feColorMatrix in="SourceAlpha" values="0 0 0 0 0 0 0 0 0 0 0 0 0 0 0 0 0 0 127 0" result="hardAlpha"/><feOffset/><feColorMatrix values="0 0 0 0 0 0 0 0 0 0 0 0 0 0 0 0 0 0 0.03 0"/><feBlend in2="BackgroundImageFix" result="effect1_dropShadow_832_1090"/><feColorMatrix in="SourceAlpha" values="0 0 0 0 0 0 0 0 0 0 0 0 0 0 0 0 0 0 127 0" result="hardAlpha"/><feOffset dy="15"/><feGaussianBlur stdDeviation="17"/><feColorMatrix values="0 0 0 0 0 0 0 0 0 0 0 0 0 0 0 0 0 0 0.03 0"/><feBlend in2="effect1_dropShadow_832_1090" result="effect2_dropShadow_832_1090"/><feColorMatrix in="SourceAlpha" values="0 0 0 0 0 0 0 0 0 0 0 0 0 0 0 0 0 0 127 0" result="hardAlpha"/><feOffset dy="62"/><feGaussianBlur stdDeviation="31"/><feColorMatrix values="0 0 0 0 0 0 0 0 0 0 0 0 0 0 0 0 0 0 0.02 0"/><feBlend in2="effect2_dropShadow_832_1090" result="effect3_dropShadow_832_1090"/><feColorMatrix in="SourceAlpha" values="0 0 0 0 0 0 0 0 0 0 0 0 0 0 0 0 0 0 127 0" result="hardAlpha"/><feOffset dy="139"/><feGaussianBlur stdDeviation="41.5"/><feColorMatrix values="0 0 0 0 0 0 0 0 0 0 0 0 0 0 0 0 0 0 0.01 0"/><feBlend in2="effect3_dropShadow_832_1090" result="effect4_dropShadow_832_1090"/><feBlend in="SourceGraphic" in2="effect4_dropShadow_832_1090" result="shape"/></filter></defs></svg>