<svg width="34" height="34" viewBox="0 0 34 34" fill="none" xmlns="http://www.w3.org/2000/svg">
<path fill-rule="evenodd" clip-rule="evenodd" d="M30.9987 12.2433L32.199 13.4433C33.1495 14.3767 33.6664 15.6433 33.6664 16.9767C33.683 18.31 33.1662 19.5783 32.2325 20.5267C32.2214 20.5388 32.2102 20.5497 32.199 20.5603C32.1935 20.5657 32.188 20.5712 32.1824 20.5767L30.9987 21.76C30.5319 22.2267 30.265 22.86 30.265 23.5283V25.2433C30.265 28.01 28.0142 30.2617 25.2465 30.2617H23.5294C22.8624 30.2617 22.2289 30.5267 21.762 30.9933L20.5615 32.1933C19.5779 33.1783 18.294 33.66 17.0102 33.66C15.7265 33.66 14.4427 33.1783 13.459 32.2117L12.2419 30.9933C11.775 30.5267 11.1415 30.2617 10.4746 30.2617H8.75729C5.98962 30.2617 3.73881 28.01 3.73881 25.2433V23.5283C3.73881 22.86 3.47204 22.2267 3.00521 21.7433L1.80477 20.56C-0.145943 18.6117 -0.16261 15.4267 1.78809 13.4616L3.00521 12.2433C3.47204 11.7766 3.73881 11.1433 3.73881 10.46V8.75998C3.73881 5.99331 5.98962 3.74498 8.75729 3.74498H10.4746C11.1415 3.74498 11.775 3.47665 12.2419 3.00998L13.4423 1.80998C15.393 -0.155019 18.5775 -0.155019 20.5449 1.79498L21.762 3.00998C22.2289 3.47665 22.8624 3.74498 23.5294 3.74498H25.2465C28.0142 3.74498 30.265 5.99331 30.265 8.75998V10.4783C30.265 11.1433 30.5319 11.7766 30.9987 12.2433ZM12.7087 22.7433C13.1089 22.7433 13.4757 22.5933 13.7424 22.31L22.3122 13.745C22.879 13.1783 22.879 12.2433 22.3122 11.6766C21.7454 11.1116 20.8284 11.1116 20.2615 11.6766L11.6917 20.2433C11.1248 20.81 11.1248 21.7433 11.6917 22.31C11.9584 22.5933 12.3252 22.7433 12.7087 22.7433ZM19.828 21.2767C19.828 22.0933 20.4782 22.7433 21.2952 22.7433C22.0954 22.7433 22.7457 22.0933 22.7457 21.2767C22.7457 20.4783 22.0954 19.8267 21.2952 19.8267C20.4782 19.8267 19.828 20.4783 19.828 21.2767ZM12.7254 11.26C13.5257 11.26 14.1759 11.91 14.1759 12.71C14.1759 13.5283 13.5257 14.1767 12.7254 14.1767C11.9251 14.1767 11.2582 13.5283 11.2582 12.71C11.2582 11.91 11.9251 11.26 12.7254 11.26Z" fill="#FF5722"/>
</svg>
