<svg xmlns="http://www.w3.org/2000/svg" width="32" height="32" fill="none"><path fill="#5D50C6" d="M16 32c8.837 0 16-7.163 16-16S24.837 0 16 0 0 7.163 0 16s7.163 16 16 16Z"/><path fill="#fff" d="M20.8 8.2h-9.6c-1.667 0-3 1.334-3 3v9.6c0 1.667 1.333 3 3 3h9.6c1.667 0 3-1.333 3-3v-9.6c0-1.666-1.333-3-3-3Zm.867 1.8H22v2.667h-2.667V10h2.334ZM13.8 14.4c.467-.667 1.333-1.133 2.2-1.133.867 0 1.733.466 2.2 1.133.333.467.533 1 .533 1.6 0 1.534-1.266 2.733-2.733 2.733s-2.733-1.2-2.733-2.733c0-.6.2-1.133.533-1.6Zm8.467 6.4c0 .8-.667 1.467-1.467 1.467h-9.6A1.48 1.48 0 0 1 9.733 20.8v-6.4h2.334a4.291 4.291 0 0 0-.334 1.6c0 2.334 1.934 4.267 4.267 4.267s4.267-1.933 4.267-4.267c0-.533-.134-1.133-.334-1.6h2.334v6.4Z"/></svg>