<svg width="228" height="164" viewBox="0 0 228 164" fill="none" xmlns="http://www.w3.org/2000/svg">
<g filter="url(#filter0_dd_832_872)">
<rect x="31" width="166" height="56" rx="28" fill="white"/>
<path fill-rule="evenodd" clip-rule="evenodd" d="M66.5 26.3178C66.5 21.7179 70.3439 18 74.9934 18C79.6561 18 83.5 21.7179 83.5 26.3178C83.5 28.6357 82.657 30.7876 81.2695 32.6116C79.7388 34.6235 77.8522 36.3765 75.7285 37.7524C75.2425 38.0704 74.8039 38.0944 74.2704 37.7524C72.1347 36.3765 70.2481 34.6235 68.7305 32.6116C67.342 30.7876 66.5 28.6357 66.5 26.3178ZM72.1942 26.5768C72.1942 28.1177 73.4517 29.3297 74.9934 29.3297C76.5362 29.3297 77.8058 28.1177 77.8058 26.5768C77.8058 25.0478 76.5362 23.7768 74.9934 23.7768C73.4517 23.7768 72.1942 25.0478 72.1942 26.5768Z" fill="#FACD49"/>
<path d="M103.442 25.408H100.306V33.5H98.36V25.408H95.224V23.574H103.442V25.408ZM106.43 32.016C107.34 32.016 108.18 31.358 108.18 30.056C108.18 28.754 107.34 28.096 106.43 28.096C105.52 28.096 104.68 28.754 104.68 30.056C104.68 31.344 105.52 32.016 106.43 32.016ZM106.43 26.402C108.488 26.402 110.042 27.928 110.042 30.056C110.042 32.17 108.488 33.71 106.43 33.71C104.372 33.71 102.818 32.17 102.818 30.056C102.818 27.928 104.372 26.402 106.43 26.402ZM113.374 36.16H111.512V26.612H113.318V27.452C113.626 26.92 114.396 26.458 115.432 26.458C117.448 26.458 118.61 27.998 118.61 30.042C118.61 32.128 117.308 33.668 115.362 33.668C114.41 33.668 113.71 33.29 113.374 32.828V36.16ZM116.776 30.056C116.776 28.838 116.02 28.124 115.068 28.124C114.116 28.124 113.346 28.838 113.346 30.056C113.346 31.274 114.116 32.002 115.068 32.002C116.02 32.002 116.776 31.288 116.776 30.056ZM125.629 28.096H127.155C128.121 28.096 128.709 27.536 128.709 26.682C128.709 25.8 128.121 25.254 127.155 25.254H125.629V28.096ZM127.393 29.762H125.615V33.5H123.683V23.574H127.393C129.353 23.574 130.655 24.876 130.655 26.668C130.655 28.474 129.353 29.762 127.393 29.762ZM133.799 33.5H131.937V23.364H133.799V33.5ZM135.332 31.624C135.332 30.392 136.242 29.706 137.39 29.538L139.084 29.286C139.476 29.23 139.602 29.034 139.602 28.796C139.602 28.306 139.224 27.9 138.44 27.9C137.628 27.9 137.18 28.418 137.124 29.02L135.472 28.67C135.584 27.592 136.578 26.402 138.426 26.402C140.61 26.402 141.422 27.634 141.422 29.02V32.408C141.422 32.772 141.464 33.262 141.506 33.5H139.798C139.756 33.318 139.728 32.94 139.728 32.674C139.378 33.22 138.72 33.696 137.698 33.696C136.228 33.696 135.332 32.702 135.332 31.624ZM138.09 32.31C138.874 32.31 139.602 31.932 139.602 30.714V30.406L138.048 30.644C137.572 30.714 137.194 30.98 137.194 31.512C137.194 31.918 137.488 32.31 138.09 32.31ZM146.365 28.124C145.413 28.124 144.615 28.81 144.615 30.056C144.615 31.302 145.427 32.002 146.379 32.002C147.331 32.002 147.807 31.372 147.961 30.84L149.599 31.386C149.291 32.534 148.213 33.71 146.379 33.71C144.349 33.71 142.753 32.17 142.753 30.056C142.753 27.928 144.321 26.402 146.323 26.402C148.199 26.402 149.263 27.564 149.557 28.726L147.891 29.286C147.723 28.712 147.289 28.124 146.365 28.124ZM152.258 29.272H155.338C155.31 28.586 154.862 27.914 153.798 27.914C152.832 27.914 152.3 28.642 152.258 29.272ZM155.52 31.064L157.074 31.526C156.724 32.716 155.632 33.71 153.938 33.71C152.048 33.71 150.382 32.352 150.382 30.028C150.382 27.83 152.006 26.402 153.77 26.402C155.898 26.402 157.172 27.76 157.172 29.972C157.172 30.238 157.144 30.518 157.144 30.546H152.216C152.258 31.456 153.028 32.114 153.952 32.114C154.82 32.114 155.296 31.68 155.52 31.064ZM158.051 31.582L159.647 31.232C159.689 31.778 160.095 32.282 160.907 32.282C161.523 32.282 161.817 31.96 161.817 31.596C161.817 31.288 161.607 31.036 161.075 30.924L160.165 30.714C158.835 30.42 158.233 29.622 158.233 28.656C158.233 27.424 159.325 26.402 160.809 26.402C162.769 26.402 163.427 27.648 163.511 28.39L161.957 28.74C161.901 28.334 161.607 27.816 160.823 27.816C160.333 27.816 159.941 28.11 159.941 28.502C159.941 28.838 160.193 29.048 160.571 29.118L161.551 29.328C162.909 29.608 163.595 30.434 163.595 31.442C163.595 32.562 162.727 33.71 160.921 33.71C158.849 33.71 158.135 32.366 158.051 31.582Z" fill="#393E46"/>
</g>
<defs>
<filter id="filter0_dd_832_872" x="0" y="0" width="228" height="164" filterUnits="userSpaceOnUse" color-interpolation-filters="sRGB">
<feFlood flood-opacity="0" result="BackgroundImageFix"/>
<feColorMatrix in="SourceAlpha" type="matrix" values="0 0 0 0 0 0 0 0 0 0 0 0 0 0 0 0 0 0 127 0" result="hardAlpha"/>
<feOffset dy="43"/>
<feGaussianBlur stdDeviation="13"/>
<feColorMatrix type="matrix" values="0 0 0 0 0 0 0 0 0 0 0 0 0 0 0 0 0 0 0.05 0"/>
<feBlend mode="normal" in2="BackgroundImageFix" result="effect1_dropShadow_832_872"/>
<feColorMatrix in="SourceAlpha" type="matrix" values="0 0 0 0 0 0 0 0 0 0 0 0 0 0 0 0 0 0 127 0" result="hardAlpha"/>
<feOffset dy="77"/>
<feGaussianBlur stdDeviation="15.5"/>
<feColorMatrix type="matrix" values="0 0 0 0 0 0 0 0 0 0 0 0 0 0 0 0 0 0 0.01 0"/>
<feBlend mode="normal" in2="effect1_dropShadow_832_872" result="effect2_dropShadow_832_872"/>
<feBlend mode="normal" in="SourceGraphic" in2="effect2_dropShadow_832_872" result="shape"/>
</filter>
</defs>
</svg>
