<svg width="192" height="272" viewBox="0 0 192 272" fill="none" xmlns="http://www.w3.org/2000/svg">
<g filter="url(#filter0_ddddd_832_1163)">
<rect width="100" height="100" rx="50" transform="matrix(-1 0 0 1 146 9.5)" fill="#5D50C6"/>
<path d="M101.586 58.5H87.9999C87.4476 58.5 86.9999 58.9478 86.9999 59.5C86.9999 60.0523 87.4476 60.5 87.9999 60.5H101.586L98.3431 63.7427C97.9525 64.1332 97.9525 64.7664 98.3431 65.1569C98.7336 65.5474 99.3667 65.5474 99.7573 65.1569L104 60.9143C104.781 60.1332 104.781 58.8669 104 58.0858L99.7573 53.8432C99.3667 53.4527 98.7336 53.4527 98.3431 53.8432C97.9525 54.2337 97.9525 54.8669 98.3431 55.2574L101.586 58.5Z" fill="white"/>
</g>
<defs>
<filter id="filter0_ddddd_832_1163" x="0" y="0.5" width="192" height="271" filterUnits="userSpaceOnUse" color-interpolation-filters="sRGB">
<feFlood flood-opacity="0" result="BackgroundImageFix"/>
<feColorMatrix in="SourceAlpha" type="matrix" values="0 0 0 0 0 0 0 0 0 0 0 0 0 0 0 0 0 0 127 0" result="hardAlpha"/>
<feOffset/>
<feColorMatrix type="matrix" values="0 0 0 0 0 0 0 0 0 0 0 0 0 0 0 0 0 0 0.08 0"/>
<feBlend mode="normal" in2="BackgroundImageFix" result="effect1_dropShadow_832_1163"/>
<feColorMatrix in="SourceAlpha" type="matrix" values="0 0 0 0 0 0 0 0 0 0 0 0 0 0 0 0 0 0 127 0" result="hardAlpha"/>
<feOffset dy="7"/>
<feGaussianBlur stdDeviation="8"/>
<feColorMatrix type="matrix" values="0 0 0 0 0 0 0 0 0 0 0 0 0 0 0 0 0 0 0.07 0"/>
<feBlend mode="normal" in2="effect1_dropShadow_832_1163" result="effect2_dropShadow_832_1163"/>
<feColorMatrix in="SourceAlpha" type="matrix" values="0 0 0 0 0 0 0 0 0 0 0 0 0 0 0 0 0 0 127 0" result="hardAlpha"/>
<feOffset dy="29"/>
<feGaussianBlur stdDeviation="14.5"/>
<feColorMatrix type="matrix" values="0 0 0 0 0 0 0 0 0 0 0 0 0 0 0 0 0 0 0.06 0"/>
<feBlend mode="normal" in2="effect2_dropShadow_832_1163" result="effect3_dropShadow_832_1163"/>
<feColorMatrix in="SourceAlpha" type="matrix" values="0 0 0 0 0 0 0 0 0 0 0 0 0 0 0 0 0 0 127 0" result="hardAlpha"/>
<feOffset dy="65"/>
<feGaussianBlur stdDeviation="19.5"/>
<feColorMatrix type="matrix" values="0 0 0 0 0 0 0 0 0 0 0 0 0 0 0 0 0 0 0.04 0"/>
<feBlend mode="normal" in2="effect3_dropShadow_832_1163" result="effect4_dropShadow_832_1163"/>
<feColorMatrix in="SourceAlpha" type="matrix" values="0 0 0 0 0 0 0 0 0 0 0 0 0 0 0 0 0 0 127 0" result="hardAlpha"/>
<feOffset dy="116"/>
<feGaussianBlur stdDeviation="23"/>
<feColorMatrix type="matrix" values="0 0 0 0 0 0 0 0 0 0 0 0 0 0 0 0 0 0 0.01 0"/>
<feBlend mode="normal" in2="effect4_dropShadow_832_1163" result="effect5_dropShadow_832_1163"/>
<feBlend mode="normal" in="SourceGraphic" in2="effect5_dropShadow_832_1163" result="shape"/>
</filter>
</defs>
</svg>
